<svg xmlns="http://www.w3.org/2000/svg" xmlns:xlink="http://www.w3.org/1999/xlink" width="193" zoomAndPan="magnify" viewBox="0 0 144.75 32.999998" height="44" preserveAspectRatio="xMidYMid meet" version="1.0"><defs><g/><clipPath id="7495ea37b6"><path d="M 14.035156 3.324219 L 38.742188 3.324219 L 38.742188 11 L 14.035156 11 Z M 14.035156 3.324219 " clip-rule="nonzero"/></clipPath><clipPath id="4f417cb181"><path d="M 20 18 L 33 18 L 33 30.277344 L 20 30.277344 Z M 20 18 " clip-rule="nonzero"/></clipPath></defs><path fill="#3b82f6" d="M 33.871094 13.890625 C 33.542969 13.890625 33.230469 13.757812 33.003906 13.523438 C 29.3125 9.835938 23.332031 9.835938 19.636719 13.523438 C 19.15625 14.003906 18.378906 14.003906 17.898438 13.523438 C 17.417969 13.042969 17.417969 12.261719 17.898438 11.78125 C 22.554688 7.144531 30.085938 7.144531 34.742188 11.78125 C 35.210938 12.265625 35.210938 13.035156 34.742188 13.523438 C 34.511719 13.753906 34.199219 13.886719 33.871094 13.890625 Z M 33.871094 13.890625 " fill-opacity="1" fill-rule="nonzero"/><g clip-path="url(#7495ea37b6)"><path fill="#3b82f6" d="M 37.382812 10.382812 C 37.054688 10.382812 36.738281 10.25 36.511719 10.011719 C 30.886719 4.386719 21.765625 4.378906 16.140625 10.003906 C 16.136719 10.007812 16.132812 10.011719 16.128906 10.011719 C 15.652344 10.492188 14.875 10.496094 14.394531 10.019531 C 14.394531 10.015625 14.390625 10.015625 14.390625 10.011719 C 13.921875 9.527344 13.921875 8.757812 14.390625 8.273438 C 20.980469 1.675781 31.675781 1.671875 38.273438 8.265625 C 38.273438 8.265625 38.277344 8.269531 38.28125 8.273438 C 38.746094 8.757812 38.746094 9.527344 38.28125 10.011719 C 38.042969 10.253906 37.71875 10.386719 37.382812 10.382812 Z M 37.382812 10.382812 " fill-opacity="1" fill-rule="nonzero"/></g><path fill="#3b82f6" d="M 22.375 17.488281 C 21.699219 17.488281 21.148438 16.941406 21.144531 16.265625 C 21.144531 15.9375 21.273438 15.621094 21.507812 15.390625 C 24.164062 12.730469 28.46875 12.730469 31.128906 15.382812 C 31.128906 15.386719 31.132812 15.386719 31.132812 15.390625 C 31.601562 15.875 31.601562 16.644531 31.132812 17.128906 C 30.65625 17.609375 29.878906 17.613281 29.398438 17.136719 C 29.398438 17.132812 29.394531 17.132812 29.394531 17.128906 C 27.675781 15.488281 24.964844 15.488281 23.246094 17.128906 C 23.015625 17.359375 22.703125 17.488281 22.375 17.488281 Z M 22.375 17.488281 " fill-opacity="1" fill-rule="nonzero"/><path fill="#000000" d="M 31.761719 24.347656 C 31.769531 27.355469 29.335938 29.800781 26.328125 29.808594 C 23.320312 29.816406 20.871094 27.382812 20.863281 24.375 C 20.855469 21.367188 23.289062 18.921875 26.300781 18.914062 C 26.308594 18.914062 26.316406 18.914062 26.328125 18.914062 C 29.324219 18.921875 31.753906 21.347656 31.761719 24.347656 Z M 31.761719 24.347656 " fill-opacity="1" fill-rule="nonzero"/><g clip-path="url(#4f417cb181)"><path fill="#3b82f6" d="M 26.328125 18.398438 C 23.035156 18.390625 20.359375 21.054688 20.351562 24.347656 C 20.34375 27.640625 23.007812 30.316406 26.300781 30.324219 C 29.59375 30.332031 32.265625 27.667969 32.273438 24.375 C 32.273438 24.367188 32.273438 24.355469 32.273438 24.347656 C 32.265625 21.066406 29.609375 18.40625 26.328125 18.398438 Z M 26.328125 29.808594 C 23.320312 29.816406 20.871094 27.382812 20.863281 24.375 C 20.855469 21.367188 23.289062 18.921875 26.300781 18.914062 C 29.308594 18.90625 31.753906 21.339844 31.761719 24.347656 C 31.761719 24.351562 31.761719 24.355469 31.761719 24.359375 C 31.753906 27.359375 29.324219 29.789062 26.328125 29.796875 Z M 26.328125 29.808594 " fill-opacity="1" fill-rule="nonzero"/><path fill="#3b82f6" d="M 32.273438 24.347656 C 32.164062 22.816406 31.207031 21.476562 29.792969 20.882812 C 29.191406 19.464844 27.847656 18.507812 26.3125 18.398438 C 24.785156 18.511719 23.445312 19.460938 22.832031 20.867188 C 21.429688 21.476562 20.476562 22.820312 20.367188 24.347656 C 20.472656 25.878906 21.421875 27.226562 22.832031 27.839844 C 23.445312 29.246094 24.785156 30.199219 26.3125 30.308594 C 27.847656 30.199219 29.191406 29.242188 29.792969 27.828125 C 31.210938 27.226562 32.171875 25.882812 32.273438 24.347656 Z M 30.5625 25.132812 C 30.578125 24.871094 30.578125 24.609375 30.5625 24.347656 C 30.578125 24.089844 30.578125 23.832031 30.5625 23.578125 C 31.320312 23.832031 31.761719 24.117188 31.761719 24.347656 C 31.761719 24.574219 31.320312 24.875 30.5625 25.132812 Z M 26.285156 29.796875 C 26.058594 29.796875 25.757812 29.351562 25.515625 28.613281 C 25.769531 28.613281 26.027344 28.613281 26.285156 28.613281 C 26.542969 28.613281 26.8125 28.613281 27.070312 28.613281 C 26.871094 29.351562 26.554688 29.796875 26.3125 29.796875 Z M 26.285156 28.15625 C 25.980469 28.175781 25.675781 28.175781 25.371094 28.15625 C 25.222656 27.5 25.125 26.832031 25.085938 26.160156 L 27.554688 26.160156 C 27.496094 26.808594 27.390625 27.449219 27.242188 28.082031 C 26.933594 28.128906 26.625 28.152344 26.3125 28.15625 Z M 20.878906 24.347656 C 20.878906 24.117188 21.308594 23.832031 22.0625 23.578125 C 22.0625 23.832031 22.0625 24.089844 22.0625 24.347656 C 22.0625 24.605469 22.0625 24.875 22.0625 25.132812 C 21.308594 24.875 20.878906 24.589844 20.878906 24.347656 Z M 22.519531 24.347656 C 22.496094 24.042969 22.496094 23.738281 22.519531 23.433594 C 23.152344 23.277344 23.796875 23.171875 24.445312 23.121094 C 24.445312 23.519531 24.445312 23.933594 24.445312 24.347656 C 24.445312 24.761719 24.445312 25.1875 24.445312 25.585938 C 23.820312 25.53125 23.199219 25.425781 22.589844 25.273438 C 22.570312 24.964844 22.570312 24.65625 22.589844 24.347656 Z M 26.3125 18.914062 C 26.554688 18.914062 26.839844 19.355469 27.097656 20.097656 C 26.839844 20.097656 26.585938 20.097656 26.3125 20.097656 C 26.042969 20.097656 25.800781 20.097656 25.542969 20.097656 C 25.785156 19.355469 26.085938 18.914062 26.3125 18.914062 Z M 26.3125 20.554688 C 26.621094 20.53125 26.933594 20.53125 27.242188 20.554688 C 27.390625 21.1875 27.496094 21.832031 27.554688 22.480469 L 25.085938 22.480469 C 25.15625 21.851562 25.277344 21.230469 25.445312 20.625 C 25.730469 20.582031 26.023438 20.558594 26.3125 20.554688 Z M 27.738281 20.710938 C 28.300781 20.824219 28.847656 21.003906 29.367188 21.253906 C 29.613281 21.769531 29.792969 22.316406 29.894531 22.878906 C 29.277344 22.746094 28.652344 22.652344 28.023438 22.59375 C 27.984375 21.960938 27.90625 21.332031 27.796875 20.710938 Z M 27.582031 24.347656 C 27.582031 24.804688 27.582031 25.230469 27.582031 25.644531 C 27.183594 25.644531 26.753906 25.644531 26.300781 25.644531 C 25.84375 25.644531 25.429688 25.644531 25.015625 25.644531 C 25.015625 25.230469 25.015625 24.804688 25.015625 24.347656 C 25.015625 23.890625 25.015625 23.476562 25.015625 23.0625 C 25.429688 23.0625 25.855469 23.0625 26.300781 23.0625 C 26.742188 23.0625 27.183594 23.0625 27.582031 23.0625 C 27.621094 23.472656 27.640625 23.898438 27.640625 24.347656 Z M 24.558594 22.59375 C 23.925781 22.652344 23.296875 22.746094 22.675781 22.878906 C 22.792969 22.3125 22.972656 21.761719 23.21875 21.238281 C 23.738281 21 24.285156 20.828125 24.84375 20.722656 C 24.707031 21.339844 24.613281 21.964844 24.558594 22.59375 Z M 24.558594 26.117188 C 24.613281 26.75 24.707031 27.378906 24.84375 28 C 24.285156 27.882812 23.738281 27.707031 23.21875 27.46875 C 22.972656 26.945312 22.792969 26.394531 22.675781 25.832031 C 23.296875 25.976562 23.925781 26.085938 24.558594 26.160156 Z M 28.082031 26.117188 C 28.710938 26.054688 29.332031 25.960938 29.949219 25.832031 C 29.847656 26.394531 29.671875 26.941406 29.421875 27.457031 C 28.90625 27.703125 28.359375 27.882812 27.796875 28 C 27.925781 27.390625 28.019531 26.777344 28.082031 26.160156 Z M 28.082031 25.585938 C 28.082031 25.1875 28.082031 24.773438 28.082031 24.347656 C 28.082031 23.917969 28.082031 23.519531 28.082031 23.121094 C 28.730469 23.175781 29.375 23.277344 30.007812 23.433594 C 30.101562 24.042969 30.101562 24.664062 30.007812 25.273438 C 29.390625 25.425781 28.757812 25.53125 28.125 25.585938 Z M 31.546875 23.476562 C 31.210938 23.273438 30.84375 23.121094 30.464844 23.019531 C 30.382812 22.535156 30.261719 22.058594 30.09375 21.59375 C 30.792969 22.035156 31.320312 22.699219 31.589844 23.476562 Z M 28.980469 20.539062 C 28.519531 20.363281 28.042969 20.238281 27.554688 20.167969 C 27.488281 19.773438 27.367188 19.390625 27.199219 19.027344 C 27.953125 19.324219 28.589844 19.851562 29.023438 20.539062 Z M 25.445312 19.027344 C 25.246094 19.371094 25.097656 19.742188 25 20.125 C 24.515625 20.199219 24.035156 20.320312 23.574219 20.496094 C 24.019531 19.816406 24.675781 19.296875 25.445312 19.027344 Z M 22.589844 21.609375 C 22.417969 22.070312 22.292969 22.546875 22.21875 23.035156 C 21.835938 23.136719 21.464844 23.289062 21.121094 23.492188 C 21.375 22.746094 21.859375 22.101562 22.503906 21.652344 Z M 21.164062 25.1875 C 21.507812 25.390625 21.878906 25.542969 22.261719 25.644531 C 22.335938 26.132812 22.460938 26.609375 22.632812 27.070312 C 21.90625 26.65625 21.34375 26.007812 21.035156 25.230469 Z M 23.746094 28.125 C 24.207031 28.300781 24.683594 28.425781 25.171875 28.496094 C 25.269531 28.882812 25.417969 29.25 25.613281 29.59375 C 24.804688 29.359375 24.101562 28.859375 23.617188 28.167969 Z M 27.324219 29.554688 C 27.527344 29.210938 27.679688 28.839844 27.78125 28.453125 C 28.269531 28.382812 28.746094 28.257812 29.207031 28.082031 C 28.734375 28.816406 28.027344 29.367188 27.199219 29.636719 Z M 30.265625 26.972656 C 30.429688 26.507812 30.554688 26.03125 30.636719 25.546875 C 31.015625 25.445312 31.382812 25.292969 31.71875 25.089844 C 31.441406 25.914062 30.882812 26.609375 30.136719 27.058594 Z M 30.265625 26.972656 " fill-opacity="1" fill-rule="nonzero"/></g><g fill="#ffffff" fill-opacity="1"><g transform="translate(23.824924, 30.697133)"><g/></g></g><g fill="#ffffff" fill-opacity="1"><g transform="translate(33.862275, 30.697133)"><g><path d="M 10.25 -0.09375 C 9.90625 -0.113281 9.554688 -0.117188 9.203125 -0.109375 C 8.847656 -0.0976562 8.488281 -0.09375 8.125 -0.09375 C 8.039062 -0.09375 7.972656 -0.234375 7.921875 -0.515625 C 7.878906 -0.796875 7.851562 -1.164062 7.84375 -1.625 C 7.832031 -2.082031 7.828125 -2.570312 7.828125 -3.09375 C 7.828125 -3.625 7.832031 -4.132812 7.84375 -4.625 C 7.851562 -5.125 7.863281 -5.550781 7.875 -5.90625 C 7.882812 -6.269531 7.890625 -6.507812 7.890625 -6.625 C 7.867188 -7.375 7.75 -7.941406 7.53125 -8.328125 C 7.3125 -8.710938 7.035156 -8.976562 6.703125 -9.125 C 6.378906 -9.269531 6.054688 -9.34375 5.734375 -9.34375 L 5.703125 -9.34375 C 4.929688 -9.34375 4.304688 -9.082031 3.828125 -8.5625 C 3.359375 -8.050781 3.113281 -7.382812 3.09375 -6.5625 C 3.070312 -6.03125 3.0625 -5.492188 3.0625 -4.953125 C 3.0625 -4.421875 3.0625 -3.882812 3.0625 -3.34375 C 3.082031 -2.9375 3.117188 -2.476562 3.171875 -1.96875 C 3.234375 -1.46875 3.226562 -1.015625 3.15625 -0.609375 C 3.09375 -0.296875 2.960938 -0.128906 2.765625 -0.109375 C 2.578125 -0.0859375 2.363281 -0.0703125 2.125 -0.0625 C 1.96875 -0.0507812 1.757812 -0.0351562 1.5 -0.015625 C 1.238281 0.00390625 0.984375 0 0.734375 -0.03125 C 0.484375 -0.0703125 0.300781 -0.175781 0.1875 -0.34375 C 0.03125 -0.550781 -0.0234375 -0.804688 0.015625 -1.109375 C 0.0546875 -1.410156 0.0820312 -1.675781 0.09375 -1.90625 C 0.15625 -2.644531 0.195312 -3.394531 0.21875 -4.15625 C 0.257812 -5.59375 0.21875 -7.03125 0.09375 -8.46875 C 0.0703125 -8.75 0.0507812 -9.078125 0.03125 -9.453125 C 0.0195312 -9.828125 0.0507812 -10.179688 0.125 -10.515625 C 0.195312 -10.859375 0.34375 -11.125 0.5625 -11.3125 C 0.789062 -11.507812 1.125 -11.570312 1.5625 -11.5 C 1.925781 -11.425781 2.28125 -11.335938 2.625 -11.234375 C 2.976562 -11.140625 3.332031 -11.0625 3.6875 -11 C 3.71875 -11 3.75 -11 3.78125 -11 C 3.8125 -11 3.835938 -11 3.859375 -11 C 4.109375 -11 4.359375 -11.046875 4.609375 -11.140625 C 4.867188 -11.242188 5.128906 -11.347656 5.390625 -11.453125 C 5.660156 -11.554688 5.929688 -11.617188 6.203125 -11.640625 C 6.972656 -11.703125 7.707031 -11.566406 8.40625 -11.234375 C 9.007812 -10.953125 9.472656 -10.582031 9.796875 -10.125 C 10.128906 -9.675781 10.367188 -9.175781 10.515625 -8.625 C 10.660156 -8.070312 10.753906 -7.5 10.796875 -6.90625 C 10.835938 -6.320312 10.867188 -5.742188 10.890625 -5.171875 C 10.890625 -5.054688 10.898438 -4.8125 10.921875 -4.4375 C 10.953125 -4.0625 10.972656 -3.628906 10.984375 -3.140625 C 10.992188 -2.648438 10.984375 -2.171875 10.953125 -1.703125 C 10.921875 -1.242188 10.851562 -0.859375 10.75 -0.546875 C 10.65625 -0.242188 10.507812 -0.09375 10.3125 -0.09375 C 10.300781 -0.09375 10.289062 -0.09375 10.28125 -0.09375 C 10.269531 -0.09375 10.257812 -0.09375 10.25 -0.09375 Z M 10.25 -0.09375 "/></g></g></g><g fill="#ffffff" fill-opacity="1"><g transform="translate(46.863071, 30.697133)"><g><path d="M 10.25 -0.09375 C 9.90625 -0.113281 9.554688 -0.117188 9.203125 -0.109375 C 8.847656 -0.0976562 8.488281 -0.09375 8.125 -0.09375 C 8.039062 -0.09375 7.972656 -0.234375 7.921875 -0.515625 C 7.878906 -0.796875 7.851562 -1.164062 7.84375 -1.625 C 7.832031 -2.082031 7.828125 -2.570312 7.828125 -3.09375 C 7.828125 -3.625 7.832031 -4.132812 7.84375 -4.625 C 7.851562 -5.125 7.863281 -5.550781 7.875 -5.90625 C 7.882812 -6.269531 7.890625 -6.507812 7.890625 -6.625 C 7.867188 -7.375 7.75 -7.941406 7.53125 -8.328125 C 7.3125 -8.710938 7.035156 -8.976562 6.703125 -9.125 C 6.378906 -9.269531 6.054688 -9.34375 5.734375 -9.34375 L 5.703125 -9.34375 C 4.929688 -9.34375 4.304688 -9.082031 3.828125 -8.5625 C 3.359375 -8.050781 3.113281 -7.382812 3.09375 -6.5625 C 3.070312 -6.03125 3.0625 -5.492188 3.0625 -4.953125 C 3.0625 -4.421875 3.0625 -3.882812 3.0625 -3.34375 C 3.082031 -2.9375 3.117188 -2.476562 3.171875 -1.96875 C 3.234375 -1.46875 3.226562 -1.015625 3.15625 -0.609375 C 3.09375 -0.296875 2.960938 -0.128906 2.765625 -0.109375 C 2.578125 -0.0859375 2.363281 -0.0703125 2.125 -0.0625 C 1.96875 -0.0507812 1.757812 -0.0351562 1.5 -0.015625 C 1.238281 0.00390625 0.984375 0 0.734375 -0.03125 C 0.484375 -0.0703125 0.300781 -0.175781 0.1875 -0.34375 C 0.03125 -0.550781 -0.0234375 -0.804688 0.015625 -1.109375 C 0.0546875 -1.410156 0.0820312 -1.675781 0.09375 -1.90625 C 0.15625 -2.644531 0.195312 -3.394531 0.21875 -4.15625 C 0.257812 -5.59375 0.21875 -7.03125 0.09375 -8.46875 C 0.0703125 -8.75 0.0507812 -9.078125 0.03125 -9.453125 C 0.0195312 -9.828125 0.0507812 -10.179688 0.125 -10.515625 C 0.195312 -10.859375 0.34375 -11.125 0.5625 -11.3125 C 0.789062 -11.507812 1.125 -11.570312 1.5625 -11.5 C 1.925781 -11.425781 2.28125 -11.335938 2.625 -11.234375 C 2.976562 -11.140625 3.332031 -11.0625 3.6875 -11 C 3.71875 -11 3.75 -11 3.78125 -11 C 3.8125 -11 3.835938 -11 3.859375 -11 C 4.109375 -11 4.359375 -11.046875 4.609375 -11.140625 C 4.867188 -11.242188 5.128906 -11.347656 5.390625 -11.453125 C 5.660156 -11.554688 5.929688 -11.617188 6.203125 -11.640625 C 6.972656 -11.703125 7.707031 -11.566406 8.40625 -11.234375 C 9.007812 -10.953125 9.472656 -10.582031 9.796875 -10.125 C 10.128906 -9.675781 10.367188 -9.175781 10.515625 -8.625 C 10.660156 -8.070312 10.753906 -7.5 10.796875 -6.90625 C 10.835938 -6.320312 10.867188 -5.742188 10.890625 -5.171875 C 10.890625 -5.054688 10.898438 -4.8125 10.921875 -4.4375 C 10.953125 -4.0625 10.972656 -3.628906 10.984375 -3.140625 C 10.992188 -2.648438 10.984375 -2.171875 10.953125 -1.703125 C 10.921875 -1.242188 10.851562 -0.859375 10.75 -0.546875 C 10.65625 -0.242188 10.507812 -0.09375 10.3125 -0.09375 C 10.300781 -0.09375 10.289062 -0.09375 10.28125 -0.09375 C 10.269531 -0.09375 10.257812 -0.09375 10.25 -0.09375 Z M 10.25 -0.09375 "/></g></g></g><g fill="#ffffff" fill-opacity="1"><g transform="translate(59.863867, 30.697133)"><g><path d="M 11.25 -5.09375 C 11.09375 -4.957031 10.859375 -4.863281 10.546875 -4.8125 C 10.234375 -4.769531 9.898438 -4.75 9.546875 -4.75 C 9.191406 -4.75 8.859375 -4.753906 8.546875 -4.765625 C 8.234375 -4.785156 8 -4.796875 7.84375 -4.796875 C 7.144531 -4.785156 6.453125 -4.773438 5.765625 -4.765625 C 5.085938 -4.753906 4.40625 -4.75 3.71875 -4.75 C 3.5 -4.75 3.359375 -4.679688 3.296875 -4.546875 C 3.234375 -4.421875 3.222656 -4.273438 3.265625 -4.109375 C 3.316406 -3.941406 3.382812 -3.796875 3.46875 -3.671875 C 3.75 -3.304688 4.097656 -3.015625 4.515625 -2.796875 C 4.941406 -2.578125 5.382812 -2.441406 5.84375 -2.390625 C 6.34375 -2.335938 6.765625 -2.40625 7.109375 -2.59375 C 7.453125 -2.789062 7.835938 -2.992188 8.265625 -3.203125 C 8.460938 -3.316406 8.597656 -3.382812 8.671875 -3.40625 C 8.742188 -3.4375 8.867188 -3.378906 9.046875 -3.234375 C 9.234375 -3.085938 9.410156 -2.882812 9.578125 -2.625 C 9.742188 -2.375 9.910156 -2.15625 10.078125 -1.96875 C 10.242188 -1.738281 10.234375 -1.519531 10.046875 -1.3125 C 9.859375 -1.113281 9.570312 -0.929688 9.1875 -0.765625 C 8.800781 -0.597656 8.378906 -0.453125 7.921875 -0.328125 C 7.472656 -0.210938 7.0625 -0.117188 6.6875 -0.046875 C 6.320312 0.015625 6.070312 0.046875 5.9375 0.046875 C 5.039062 0.046875 4.210938 -0.128906 3.453125 -0.484375 C 2.703125 -0.835938 2.054688 -1.316406 1.515625 -1.921875 C 0.984375 -2.535156 0.582031 -3.222656 0.3125 -3.984375 C 0.0507812 -4.753906 -0.0507812 -5.554688 0 -6.390625 C 0.0625 -7.222656 0.320312 -8.035156 0.78125 -8.828125 C 1.125 -9.441406 1.585938 -9.960938 2.171875 -10.390625 C 2.753906 -10.816406 3.394531 -11.132812 4.09375 -11.34375 C 4.800781 -11.550781 5.519531 -11.644531 6.25 -11.625 C 6.988281 -11.601562 7.6875 -11.457031 8.34375 -11.1875 C 9.007812 -10.914062 9.59375 -10.503906 10.09375 -9.953125 C 10.320312 -9.691406 10.535156 -9.367188 10.734375 -8.984375 C 10.941406 -8.609375 11.117188 -8.203125 11.265625 -7.765625 C 11.421875 -7.328125 11.515625 -6.894531 11.546875 -6.46875 C 11.578125 -6.050781 11.535156 -5.664062 11.421875 -5.3125 C 11.390625 -5.238281 11.332031 -5.164062 11.25 -5.09375 Z M 8.21875 -7.1875 C 8.257812 -7.28125 8.273438 -7.378906 8.265625 -7.484375 C 8.253906 -7.640625 8.179688 -7.789062 8.046875 -7.9375 C 7.679688 -8.445312 7.210938 -8.820312 6.640625 -9.0625 C 6.066406 -9.300781 5.476562 -9.289062 4.875 -9.03125 C 4.601562 -8.90625 4.347656 -8.75 4.109375 -8.5625 C 3.878906 -8.375 3.664062 -8.175781 3.46875 -7.96875 C 3.414062 -7.914062 3.363281 -7.851562 3.3125 -7.78125 C 3.257812 -7.71875 3.21875 -7.644531 3.1875 -7.5625 C 3.132812 -7.40625 3.160156 -7.257812 3.265625 -7.125 C 3.378906 -6.988281 3.515625 -6.921875 3.671875 -6.921875 L 7.765625 -6.921875 C 7.992188 -6.921875 8.144531 -7.007812 8.21875 -7.1875 Z M 8.21875 -7.1875 "/></g></g></g><g fill="#ffffff" fill-opacity="1"><g transform="translate(73.426434, 30.697133)"><g><path d="M 10.09375 -10.359375 C 10.34375 -10.078125 10.421875 -9.773438 10.328125 -9.453125 C 10.285156 -9.304688 10.210938 -9.164062 10.109375 -9.03125 C 10.015625 -8.90625 9.914062 -8.785156 9.8125 -8.671875 C 9.738281 -8.597656 9.671875 -8.523438 9.609375 -8.453125 C 9.546875 -8.390625 9.476562 -8.328125 9.40625 -8.265625 C 9.300781 -8.140625 9.15625 -8.097656 8.96875 -8.140625 C 8.789062 -8.179688 8.613281 -8.25 8.4375 -8.34375 C 8.257812 -8.4375 8.101562 -8.503906 7.96875 -8.546875 C 7.664062 -8.648438 7.367188 -8.742188 7.078125 -8.828125 C 6.796875 -8.910156 6.503906 -8.972656 6.203125 -9.015625 C 6.128906 -9.023438 6.0625 -9.03125 6 -9.03125 C 5.945312 -9.03125 5.882812 -9.03125 5.8125 -9.03125 C 5.15625 -9.03125 4.570312 -8.832031 4.0625 -8.4375 C 3.550781 -8.039062 3.203125 -7.515625 3.015625 -6.859375 C 2.804688 -6.148438 2.820312 -5.453125 3.0625 -4.765625 C 3.3125 -4.085938 3.726562 -3.539062 4.3125 -3.125 C 4.769531 -2.820312 5.359375 -2.671875 6.078125 -2.671875 C 7.003906 -2.671875 7.75 -2.890625 8.3125 -3.328125 C 8.570312 -3.546875 8.789062 -3.679688 8.96875 -3.734375 C 9.15625 -3.796875 9.375 -3.675781 9.625 -3.375 C 9.757812 -3.238281 9.890625 -3.09375 10.015625 -2.9375 C 10.148438 -2.78125 10.273438 -2.625 10.390625 -2.46875 C 10.554688 -2.25 10.582031 -2.039062 10.46875 -1.84375 C 10.363281 -1.644531 10.179688 -1.457031 9.921875 -1.28125 C 9.671875 -1.101562 9.410156 -0.953125 9.140625 -0.828125 C 8.867188 -0.703125 8.65625 -0.609375 8.5 -0.546875 C 7.6875 -0.148438 6.832031 0.046875 5.9375 0.046875 C 5.050781 0.046875 4.207031 -0.144531 3.40625 -0.53125 C 2.601562 -0.914062 1.890625 -1.453125 1.265625 -2.140625 C 0.734375 -2.773438 0.378906 -3.425781 0.203125 -4.09375 C 0.0234375 -4.757812 -0.03125 -5.410156 0.03125 -6.046875 C 0.09375 -6.691406 0.203125 -7.273438 0.359375 -7.796875 C 0.703125 -8.867188 1.265625 -9.722656 2.046875 -10.359375 C 2.835938 -11.003906 3.8125 -11.40625 4.96875 -11.5625 C 5.363281 -11.59375 5.726562 -11.609375 6.0625 -11.609375 C 6.25 -11.609375 6.519531 -11.582031 6.875 -11.53125 C 7.238281 -11.488281 7.628906 -11.414062 8.046875 -11.3125 C 8.460938 -11.21875 8.859375 -11.085938 9.234375 -10.921875 C 9.609375 -10.765625 9.894531 -10.578125 10.09375 -10.359375 Z M 10.09375 -10.359375 "/></g></g></g><g fill="#ffffff" fill-opacity="1"><g transform="translate(85.965789, 30.697133)"><g><path d="M 3.25 -0.515625 C 2.507812 -0.941406 2.019531 -1.507812 1.78125 -2.21875 C 1.550781 -2.9375 1.445312 -3.695312 1.46875 -4.5 C 1.476562 -4.96875 1.476562 -5.429688 1.46875 -5.890625 C 1.46875 -6.359375 1.46875 -6.820312 1.46875 -7.28125 C 1.46875 -7.601562 1.46875 -7.925781 1.46875 -8.25 C 1.476562 -8.582031 1.359375 -8.875 1.109375 -9.125 C 0.972656 -9.269531 0.800781 -9.363281 0.59375 -9.40625 C 0.394531 -9.457031 0.25 -9.585938 0.15625 -9.796875 C 0.113281 -9.890625 0.0859375 -9.984375 0.078125 -10.078125 C 0.0664062 -10.171875 0.0546875 -10.265625 0.046875 -10.359375 C 0.0234375 -10.566406 0.0195312 -10.773438 0.03125 -10.984375 C 0.0507812 -11.191406 0.140625 -11.375 0.296875 -11.53125 C 0.429688 -11.65625 0.585938 -11.734375 0.765625 -11.765625 C 0.953125 -11.796875 1.101562 -11.882812 1.21875 -12.03125 C 1.445312 -12.300781 1.5625 -12.597656 1.5625 -12.921875 C 1.5625 -13.242188 1.550781 -13.550781 1.53125 -13.84375 C 1.5 -14.070312 1.476562 -14.253906 1.46875 -14.390625 C 1.46875 -14.535156 1.570312 -14.664062 1.78125 -14.78125 C 1.945312 -14.875 2.148438 -14.921875 2.390625 -14.921875 C 2.640625 -14.921875 2.890625 -14.90625 3.140625 -14.875 C 3.390625 -14.851562 3.597656 -14.832031 3.765625 -14.8125 C 4.117188 -14.769531 4.304688 -14.632812 4.328125 -14.40625 C 4.359375 -14.1875 4.359375 -13.9375 4.328125 -13.65625 C 4.273438 -12.882812 4.414062 -12.3125 4.75 -11.9375 C 4.914062 -11.757812 5.097656 -11.65625 5.296875 -11.625 C 5.492188 -11.59375 5.695312 -11.582031 5.90625 -11.59375 C 6.113281 -11.601562 6.3125 -11.601562 6.5 -11.59375 C 6.6875 -11.582031 6.847656 -11.507812 6.984375 -11.375 C 7.128906 -11.226562 7.191406 -11.003906 7.171875 -10.703125 C 7.148438 -10.398438 7.128906 -10.15625 7.109375 -9.96875 C 7.078125 -9.71875 6.960938 -9.535156 6.765625 -9.421875 C 6.578125 -9.316406 6.351562 -9.238281 6.09375 -9.1875 C 5.832031 -9.132812 5.578125 -9.070312 5.328125 -9 C 5.078125 -8.925781 4.882812 -8.800781 4.75 -8.625 C 4.601562 -8.4375 4.476562 -8.117188 4.375 -7.671875 C 4.28125 -7.222656 4.222656 -6.722656 4.203125 -6.171875 C 4.191406 -5.617188 4.226562 -5.085938 4.3125 -4.578125 C 4.40625 -4.066406 4.566406 -3.644531 4.796875 -3.3125 C 5.023438 -2.976562 5.328125 -2.8125 5.703125 -2.8125 C 5.859375 -2.8125 6.023438 -2.84375 6.203125 -2.90625 C 6.390625 -2.976562 6.566406 -3.035156 6.734375 -3.078125 C 6.910156 -3.128906 7.066406 -3.117188 7.203125 -3.046875 C 7.390625 -2.984375 7.550781 -2.804688 7.6875 -2.515625 C 7.820312 -2.234375 7.925781 -2.007812 8 -1.84375 C 8.082031 -1.695312 8.140625 -1.550781 8.171875 -1.40625 C 8.179688 -1.207031 8.097656 -1.050781 7.921875 -0.9375 C 7.742188 -0.820312 7.582031 -0.722656 7.4375 -0.640625 C 6.78125 -0.265625 6.082031 -0.0507812 5.34375 0 C 4.613281 0.0390625 3.914062 -0.128906 3.25 -0.515625 Z M 3.25 -0.515625 "/></g></g></g><g fill="#ffffff" fill-opacity="1"><g transform="translate(8.448207, 30.697544)"><g><path d="M 10.09375 -10.359375 C 10.34375 -10.078125 10.421875 -9.773438 10.328125 -9.453125 C 10.285156 -9.304688 10.210938 -9.164062 10.109375 -9.03125 C 10.015625 -8.90625 9.914062 -8.785156 9.8125 -8.671875 C 9.738281 -8.597656 9.671875 -8.523438 9.609375 -8.453125 C 9.546875 -8.390625 9.476562 -8.328125 9.40625 -8.265625 C 9.300781 -8.140625 9.15625 -8.097656 8.96875 -8.140625 C 8.789062 -8.179688 8.613281 -8.25 8.4375 -8.34375 C 8.257812 -8.4375 8.101562 -8.503906 7.96875 -8.546875 C 7.664062 -8.648438 7.367188 -8.742188 7.078125 -8.828125 C 6.796875 -8.910156 6.503906 -8.972656 6.203125 -9.015625 C 6.128906 -9.023438 6.0625 -9.03125 6 -9.03125 C 5.945312 -9.03125 5.882812 -9.03125 5.8125 -9.03125 C 5.15625 -9.03125 4.570312 -8.832031 4.0625 -8.4375 C 3.550781 -8.039062 3.203125 -7.515625 3.015625 -6.859375 C 2.804688 -6.148438 2.820312 -5.453125 3.0625 -4.765625 C 3.3125 -4.085938 3.726562 -3.539062 4.3125 -3.125 C 4.769531 -2.820312 5.359375 -2.671875 6.078125 -2.671875 C 7.003906 -2.671875 7.75 -2.890625 8.3125 -3.328125 C 8.570312 -3.546875 8.789062 -3.679688 8.96875 -3.734375 C 9.15625 -3.796875 9.375 -3.675781 9.625 -3.375 C 9.757812 -3.238281 9.890625 -3.09375 10.015625 -2.9375 C 10.148438 -2.78125 10.273438 -2.625 10.390625 -2.46875 C 10.554688 -2.25 10.582031 -2.039062 10.46875 -1.84375 C 10.363281 -1.644531 10.179688 -1.457031 9.921875 -1.28125 C 9.671875 -1.101562 9.410156 -0.953125 9.140625 -0.828125 C 8.867188 -0.703125 8.65625 -0.609375 8.5 -0.546875 C 7.6875 -0.148438 6.832031 0.046875 5.9375 0.046875 C 5.050781 0.046875 4.207031 -0.144531 3.40625 -0.53125 C 2.601562 -0.914062 1.890625 -1.453125 1.265625 -2.140625 C 0.734375 -2.773438 0.378906 -3.425781 0.203125 -4.09375 C 0.0234375 -4.757812 -0.03125 -5.410156 0.03125 -6.046875 C 0.09375 -6.691406 0.203125 -7.273438 0.359375 -7.796875 C 0.703125 -8.867188 1.265625 -9.722656 2.046875 -10.359375 C 2.835938 -11.003906 3.8125 -11.40625 4.96875 -11.5625 C 5.363281 -11.59375 5.726562 -11.609375 6.0625 -11.609375 C 6.25 -11.609375 6.519531 -11.582031 6.875 -11.53125 C 7.238281 -11.488281 7.628906 -11.414062 8.046875 -11.3125 C 8.460938 -11.21875 8.859375 -11.085938 9.234375 -10.921875 C 9.609375 -10.765625 9.894531 -10.578125 10.09375 -10.359375 Z M 10.09375 -10.359375 "/></g></g></g></svg>