<svg xmlns="http://www.w3.org/2000/svg" xmlns:xlink="http://www.w3.org/1999/xlink" width="193" zoomAndPan="magnify" viewBox="0 0 144.75 32.999998" height="44" preserveAspectRatio="xMidYMid meet" version="1.0"><defs><g/><clipPath id="047ce01a12"><path d="M 14.035156 0.542969 L 43.234375 0.542969 L 43.234375 9 L 14.035156 9 Z M 14.035156 0.542969 " clip-rule="nonzero"/></clipPath><clipPath id="8c83e5eee8"><path d="M 21 18 L 36 18 L 36 32.738281 L 21 32.738281 Z M 21 18 " clip-rule="nonzero"/></clipPath></defs><path fill="#3b82f6" d="M 37.476562 13.035156 C 37.085938 13.03125 36.714844 12.875 36.449219 12.59375 C 32.085938 8.238281 25.019531 8.238281 20.65625 12.59375 C 20.089844 13.164062 19.167969 13.164062 18.601562 12.59375 C 18.035156 12.027344 18.035156 11.105469 18.601562 10.539062 C 24.105469 5.0625 33 5.0625 38.503906 10.539062 C 39.054688 11.113281 39.054688 12.019531 38.503906 12.59375 C 38.230469 12.871094 37.863281 13.027344 37.476562 13.035156 Z M 37.476562 13.035156 " fill-opacity="1" fill-rule="nonzero"/><g clip-path="url(#047ce01a12)"><path fill="#3b82f6" d="M 41.621094 8.886719 C 41.234375 8.886719 40.863281 8.730469 40.59375 8.449219 C 33.949219 1.800781 23.171875 1.792969 16.523438 8.4375 C 16.519531 8.441406 16.515625 8.445312 16.511719 8.449219 C 15.949219 9.015625 15.03125 9.019531 14.460938 8.457031 C 14.460938 8.453125 14.457031 8.453125 14.457031 8.449219 C 13.902344 7.875 13.902344 6.96875 14.457031 6.394531 C 22.246094 -1.402344 34.878906 -1.40625 42.671875 6.382812 C 42.675781 6.386719 42.679688 6.390625 42.683594 6.394531 C 43.234375 6.96875 43.234375 7.875 42.683594 8.449219 C 42.402344 8.734375 42.019531 8.890625 41.621094 8.886719 Z M 41.621094 8.886719 " fill-opacity="1" fill-rule="nonzero"/></g><path fill="#3b82f6" d="M 23.894531 17.28125 C 23.09375 17.285156 22.441406 16.636719 22.4375 15.835938 C 22.433594 15.449219 22.589844 15.078125 22.863281 14.804688 C 26.003906 11.660156 31.089844 11.660156 34.234375 14.796875 C 34.234375 14.796875 34.238281 14.800781 34.238281 14.804688 C 34.792969 15.375 34.792969 16.285156 34.238281 16.859375 C 33.675781 17.425781 32.757812 17.429688 32.191406 16.863281 C 32.1875 16.863281 32.1875 16.859375 32.183594 16.859375 C 30.152344 14.917969 26.953125 14.917969 24.921875 16.859375 C 24.648438 17.132812 24.277344 17.285156 23.894531 17.28125 Z M 23.894531 17.28125 " fill-opacity="1" fill-rule="nonzero"/><path fill="#000000" d="M 34.980469 25.386719 C 34.992188 28.941406 32.117188 31.832031 28.5625 31.839844 C 25.003906 31.847656 22.117188 28.976562 22.105469 25.417969 C 22.097656 21.863281 24.972656 18.972656 28.527344 18.964844 C 28.539062 18.964844 28.550781 18.964844 28.5625 18.964844 C 32.101562 18.972656 34.972656 21.84375 34.980469 25.386719 Z M 34.980469 25.386719 " fill-opacity="1" fill-rule="nonzero"/><g clip-path="url(#8c83e5eee8)"><path fill="#3b82f6" d="M 28.5625 18.359375 C 24.671875 18.347656 21.507812 21.496094 21.5 25.386719 C 21.492188 29.277344 24.636719 32.4375 28.527344 32.445312 C 32.417969 32.457031 35.578125 29.308594 35.589844 25.417969 C 35.589844 25.410156 35.589844 25.398438 35.589844 25.386719 C 35.578125 21.507812 32.4375 18.367188 28.5625 18.359375 Z M 28.5625 31.839844 C 25.003906 31.847656 22.117188 28.976562 22.105469 25.417969 C 22.097656 21.863281 24.972656 18.972656 28.527344 18.964844 C 32.082031 18.957031 34.972656 21.832031 34.980469 25.386719 C 34.980469 25.390625 34.980469 25.398438 34.980469 25.402344 C 34.972656 28.945312 32.101562 31.8125 28.5625 31.824219 Z M 28.5625 31.839844 " fill-opacity="1" fill-rule="nonzero"/><path fill="#3b82f6" d="M 35.589844 25.386719 C 35.457031 23.578125 34.324219 21.996094 32.65625 21.289062 C 31.945312 19.617188 30.355469 18.484375 28.542969 18.359375 C 26.738281 18.492188 25.152344 19.613281 24.433594 21.273438 C 22.769531 21.996094 21.648438 23.578125 21.515625 25.386719 C 21.640625 27.199219 22.765625 28.789062 24.433594 29.515625 C 25.152344 31.175781 26.738281 32.296875 28.542969 32.429688 C 30.355469 32.300781 31.945312 31.171875 32.65625 29.496094 C 34.332031 28.789062 35.464844 27.199219 35.589844 25.386719 Z M 33.566406 26.3125 C 33.582031 26.003906 33.582031 25.695312 33.566406 25.386719 C 33.582031 25.082031 33.582031 24.777344 33.566406 24.476562 C 34.460938 24.777344 34.980469 25.117188 34.980469 25.386719 C 34.980469 25.65625 34.460938 26.007812 33.566406 26.3125 Z M 28.511719 31.824219 C 28.242188 31.824219 27.886719 31.300781 27.601562 30.425781 C 27.902344 30.425781 28.207031 30.425781 28.511719 30.425781 C 28.8125 30.425781 29.132812 30.425781 29.4375 30.425781 C 29.203125 31.300781 28.832031 31.824219 28.542969 31.824219 Z M 28.511719 29.886719 C 28.152344 29.910156 27.789062 29.910156 27.433594 29.886719 C 27.253906 29.109375 27.140625 28.320312 27.09375 27.527344 L 30.011719 27.527344 C 29.941406 28.292969 29.816406 29.050781 29.640625 29.800781 C 29.277344 29.855469 28.910156 29.882812 28.542969 29.886719 Z M 22.125 25.386719 C 22.125 25.117188 22.628906 24.777344 23.523438 24.476562 C 23.523438 24.777344 23.523438 25.082031 23.523438 25.386719 C 23.523438 25.6875 23.523438 26.007812 23.523438 26.3125 C 22.628906 26.007812 22.125 25.671875 22.125 25.386719 Z M 24.0625 25.386719 C 24.035156 25.027344 24.035156 24.667969 24.0625 24.308594 C 24.808594 24.121094 25.570312 24 26.335938 23.9375 C 26.335938 24.410156 26.335938 24.898438 26.335938 25.386719 C 26.335938 25.875 26.335938 26.378906 26.335938 26.851562 C 25.597656 26.785156 24.863281 26.660156 24.144531 26.480469 C 24.121094 26.117188 24.121094 25.75 24.144531 25.386719 Z M 28.542969 18.964844 C 28.832031 18.964844 29.167969 19.488281 29.472656 20.363281 C 29.167969 20.363281 28.863281 20.363281 28.542969 20.363281 C 28.222656 20.363281 27.9375 20.363281 27.632812 20.363281 C 27.921875 19.488281 28.273438 18.964844 28.542969 18.964844 Z M 28.542969 20.902344 C 28.910156 20.875 29.273438 20.875 29.640625 20.902344 C 29.816406 21.652344 29.941406 22.414062 30.011719 23.179688 L 27.09375 23.179688 C 27.175781 22.4375 27.320312 21.707031 27.515625 20.988281 C 27.855469 20.9375 28.199219 20.90625 28.542969 20.902344 Z M 30.230469 21.089844 C 30.894531 21.222656 31.539062 21.4375 32.148438 21.730469 C 32.441406 22.339844 32.652344 22.984375 32.773438 23.648438 C 32.046875 23.496094 31.308594 23.382812 30.566406 23.3125 C 30.515625 22.566406 30.425781 21.824219 30.296875 21.089844 Z M 30.042969 25.386719 C 30.042969 25.925781 30.042969 26.429688 30.042969 26.917969 C 29.570312 26.917969 29.066406 26.917969 28.527344 26.917969 C 27.988281 26.917969 27.5 26.917969 27.011719 26.917969 C 27.011719 26.429688 27.011719 25.925781 27.011719 25.386719 C 27.011719 24.847656 27.011719 24.359375 27.011719 23.871094 C 27.5 23.871094 28.003906 23.871094 28.527344 23.871094 C 29.050781 23.871094 29.570312 23.871094 30.042969 23.871094 C 30.089844 24.351562 30.109375 24.859375 30.109375 25.386719 Z M 26.472656 23.3125 C 25.722656 23.382812 24.980469 23.496094 24.246094 23.648438 C 24.382812 22.980469 24.597656 22.332031 24.886719 21.710938 C 25.5 21.433594 26.144531 21.230469 26.808594 21.105469 C 26.644531 21.832031 26.535156 22.570312 26.472656 23.3125 Z M 26.472656 27.476562 C 26.535156 28.222656 26.648438 28.964844 26.808594 29.699219 C 26.148438 29.5625 25.503906 29.355469 24.886719 29.078125 C 24.597656 28.457031 24.382812 27.808594 24.246094 27.136719 C 24.980469 27.308594 25.722656 27.4375 26.472656 27.527344 Z M 30.632812 27.476562 C 31.375 27.40625 32.113281 27.292969 32.839844 27.136719 C 32.71875 27.804688 32.511719 28.449219 32.21875 29.058594 C 31.605469 29.351562 30.960938 29.566406 30.296875 29.699219 C 30.449219 28.980469 30.5625 28.257812 30.632812 27.527344 Z M 30.632812 26.851562 C 30.632812 26.378906 30.632812 25.890625 30.632812 25.386719 C 30.632812 24.878906 30.632812 24.410156 30.632812 23.9375 C 31.402344 24 32.160156 24.125 32.910156 24.308594 C 33.019531 25.027344 33.019531 25.761719 32.910156 26.480469 C 32.179688 26.660156 31.433594 26.785156 30.683594 26.851562 Z M 34.730469 24.359375 C 34.332031 24.117188 33.898438 23.933594 33.449219 23.820312 C 33.355469 23.246094 33.207031 22.679688 33.007812 22.132812 C 33.835938 22.652344 34.457031 23.4375 34.777344 24.359375 Z M 31.695312 20.886719 C 31.152344 20.679688 30.585938 20.535156 30.011719 20.449219 C 29.933594 19.980469 29.789062 19.527344 29.589844 19.101562 C 30.480469 19.449219 31.234375 20.078125 31.746094 20.886719 Z M 27.515625 19.101562 C 27.285156 19.507812 27.109375 19.945312 26.992188 20.398438 C 26.417969 20.484375 25.851562 20.628906 25.308594 20.835938 C 25.832031 20.03125 26.609375 19.421875 27.515625 19.101562 Z M 24.144531 22.148438 C 23.941406 22.695312 23.792969 23.257812 23.707031 23.835938 C 23.253906 23.957031 22.816406 24.136719 22.410156 24.375 C 22.707031 23.492188 23.28125 22.730469 24.042969 22.199219 Z M 22.460938 26.378906 C 22.867188 26.617188 23.304688 26.800781 23.757812 26.917969 C 23.84375 27.496094 23.992188 28.058594 24.195312 28.605469 C 23.339844 28.117188 22.671875 27.347656 22.308594 26.429688 Z M 25.511719 29.851562 C 26.054688 30.058594 26.621094 30.203125 27.195312 30.289062 C 27.3125 30.742188 27.484375 31.179688 27.71875 31.585938 C 26.761719 31.308594 25.929688 30.714844 25.359375 29.902344 Z M 29.742188 31.535156 C 29.976562 31.128906 30.160156 30.695312 30.28125 30.238281 C 30.855469 30.152344 31.421875 30.007812 31.964844 29.800781 C 31.40625 30.667969 30.566406 31.316406 29.589844 31.636719 Z M 33.210938 28.488281 C 33.410156 27.941406 33.554688 27.375 33.648438 26.800781 C 34.101562 26.683594 34.53125 26.503906 34.929688 26.261719 C 34.605469 27.234375 33.941406 28.0625 33.058594 28.585938 Z M 33.210938 28.488281 " fill-opacity="1" fill-rule="nonzero"/></g><g fill="#ffffff" fill-opacity="1"><g transform="translate(25.832392, 31.071897)"><g/></g></g><g fill="#ffffff" fill-opacity="1"><g transform="translate(38.174357, 31.071897)"><g><path d="M 12.609375 -0.125 C 12.179688 -0.132812 11.75 -0.132812 11.3125 -0.125 C 10.882812 -0.125 10.445312 -0.125 10 -0.125 C 9.894531 -0.125 9.8125 -0.296875 9.75 -0.640625 C 9.695312 -0.984375 9.660156 -1.4375 9.640625 -2 C 9.628906 -2.5625 9.625 -3.164062 9.625 -3.8125 C 9.625 -4.46875 9.628906 -5.097656 9.640625 -5.703125 C 9.660156 -6.304688 9.675781 -6.832031 9.6875 -7.28125 C 9.695312 -7.726562 9.703125 -8.015625 9.703125 -8.140625 C 9.679688 -9.066406 9.535156 -9.769531 9.265625 -10.25 C 8.992188 -10.726562 8.65625 -11.054688 8.25 -11.234375 C 7.851562 -11.410156 7.457031 -11.5 7.0625 -11.5 L 7.015625 -11.5 C 6.078125 -11.5 5.3125 -11.179688 4.71875 -10.546875 C 4.132812 -9.921875 3.828125 -9.097656 3.796875 -8.078125 C 3.785156 -7.410156 3.78125 -6.75 3.78125 -6.09375 C 3.78125 -5.4375 3.78125 -4.78125 3.78125 -4.125 C 3.789062 -3.613281 3.832031 -3.046875 3.90625 -2.421875 C 3.988281 -1.804688 3.976562 -1.242188 3.875 -0.734375 C 3.8125 -0.359375 3.660156 -0.15625 3.421875 -0.125 C 3.179688 -0.101562 2.910156 -0.0859375 2.609375 -0.078125 C 2.421875 -0.0546875 2.164062 -0.03125 1.84375 0 C 1.519531 0.0195312 1.203125 0.00390625 0.890625 -0.046875 C 0.585938 -0.0976562 0.363281 -0.222656 0.21875 -0.421875 C 0.0390625 -0.679688 -0.0234375 -0.992188 0.015625 -1.359375 C 0.0664062 -1.734375 0.101562 -2.0625 0.125 -2.34375 C 0.1875 -3.25 0.234375 -4.171875 0.265625 -5.109375 C 0.316406 -6.890625 0.269531 -8.660156 0.125 -10.421875 C 0.09375 -10.765625 0.0664062 -11.164062 0.046875 -11.625 C 0.0351562 -12.082031 0.0703125 -12.519531 0.15625 -12.9375 C 0.25 -13.363281 0.429688 -13.695312 0.703125 -13.9375 C 0.972656 -14.175781 1.378906 -14.242188 1.921875 -14.140625 C 2.367188 -14.054688 2.804688 -13.953125 3.234375 -13.828125 C 3.660156 -13.710938 4.097656 -13.613281 4.546875 -13.53125 C 4.578125 -13.53125 4.613281 -13.53125 4.65625 -13.53125 C 4.695312 -13.53125 4.722656 -13.53125 4.734375 -13.53125 C 5.046875 -13.53125 5.359375 -13.59375 5.671875 -13.71875 C 5.984375 -13.84375 6.304688 -13.96875 6.640625 -14.09375 C 6.972656 -14.226562 7.300781 -14.300781 7.625 -14.3125 C 8.582031 -14.394531 9.488281 -14.234375 10.34375 -13.828125 C 11.082031 -13.484375 11.65625 -13.03125 12.0625 -12.46875 C 12.46875 -11.90625 12.757812 -11.285156 12.9375 -10.609375 C 13.113281 -9.941406 13.226562 -9.242188 13.28125 -8.515625 C 13.332031 -7.796875 13.375 -7.082031 13.40625 -6.375 C 13.40625 -6.21875 13.421875 -5.910156 13.453125 -5.453125 C 13.484375 -4.992188 13.503906 -4.460938 13.515625 -3.859375 C 13.523438 -3.265625 13.515625 -2.679688 13.484375 -2.109375 C 13.453125 -1.546875 13.375 -1.070312 13.25 -0.6875 C 13.125 -0.3125 12.9375 -0.125 12.6875 -0.125 C 12.675781 -0.125 12.664062 -0.125 12.65625 -0.125 C 12.644531 -0.125 12.628906 -0.125 12.609375 -0.125 Z M 12.609375 -0.125 "/></g></g></g><g fill="#ffffff" fill-opacity="1"><g transform="translate(54.169546, 31.071897)"><g><path d="M 12.609375 -0.125 C 12.179688 -0.132812 11.75 -0.132812 11.3125 -0.125 C 10.882812 -0.125 10.445312 -0.125 10 -0.125 C 9.894531 -0.125 9.8125 -0.296875 9.75 -0.640625 C 9.695312 -0.984375 9.660156 -1.4375 9.640625 -2 C 9.628906 -2.5625 9.625 -3.164062 9.625 -3.8125 C 9.625 -4.46875 9.628906 -5.097656 9.640625 -5.703125 C 9.660156 -6.304688 9.675781 -6.832031 9.6875 -7.28125 C 9.695312 -7.726562 9.703125 -8.015625 9.703125 -8.140625 C 9.679688 -9.066406 9.535156 -9.769531 9.265625 -10.25 C 8.992188 -10.726562 8.65625 -11.054688 8.25 -11.234375 C 7.851562 -11.410156 7.457031 -11.5 7.0625 -11.5 L 7.015625 -11.5 C 6.078125 -11.5 5.3125 -11.179688 4.71875 -10.546875 C 4.132812 -9.921875 3.828125 -9.097656 3.796875 -8.078125 C 3.785156 -7.410156 3.78125 -6.75 3.78125 -6.09375 C 3.78125 -5.4375 3.78125 -4.78125 3.78125 -4.125 C 3.789062 -3.613281 3.832031 -3.046875 3.90625 -2.421875 C 3.988281 -1.804688 3.976562 -1.242188 3.875 -0.734375 C 3.8125 -0.359375 3.660156 -0.15625 3.421875 -0.125 C 3.179688 -0.101562 2.910156 -0.0859375 2.609375 -0.078125 C 2.421875 -0.0546875 2.164062 -0.03125 1.84375 0 C 1.519531 0.0195312 1.203125 0.00390625 0.890625 -0.046875 C 0.585938 -0.0976562 0.363281 -0.222656 0.21875 -0.421875 C 0.0390625 -0.679688 -0.0234375 -0.992188 0.015625 -1.359375 C 0.0664062 -1.734375 0.101562 -2.0625 0.125 -2.34375 C 0.1875 -3.25 0.234375 -4.171875 0.265625 -5.109375 C 0.316406 -6.890625 0.269531 -8.660156 0.125 -10.421875 C 0.09375 -10.765625 0.0664062 -11.164062 0.046875 -11.625 C 0.0351562 -12.082031 0.0703125 -12.519531 0.15625 -12.9375 C 0.25 -13.363281 0.429688 -13.695312 0.703125 -13.9375 C 0.972656 -14.175781 1.378906 -14.242188 1.921875 -14.140625 C 2.367188 -14.054688 2.804688 -13.953125 3.234375 -13.828125 C 3.660156 -13.710938 4.097656 -13.613281 4.546875 -13.53125 C 4.578125 -13.53125 4.613281 -13.53125 4.65625 -13.53125 C 4.695312 -13.53125 4.722656 -13.53125 4.734375 -13.53125 C 5.046875 -13.53125 5.359375 -13.59375 5.671875 -13.71875 C 5.984375 -13.84375 6.304688 -13.96875 6.640625 -14.09375 C 6.972656 -14.226562 7.300781 -14.300781 7.625 -14.3125 C 8.582031 -14.394531 9.488281 -14.234375 10.34375 -13.828125 C 11.082031 -13.484375 11.65625 -13.03125 12.0625 -12.46875 C 12.46875 -11.90625 12.757812 -11.285156 12.9375 -10.609375 C 13.113281 -9.941406 13.226562 -9.242188 13.28125 -8.515625 C 13.332031 -7.796875 13.375 -7.082031 13.40625 -6.375 C 13.40625 -6.21875 13.421875 -5.910156 13.453125 -5.453125 C 13.484375 -4.992188 13.503906 -4.460938 13.515625 -3.859375 C 13.523438 -3.265625 13.515625 -2.679688 13.484375 -2.109375 C 13.453125 -1.546875 13.375 -1.070312 13.25 -0.6875 C 13.125 -0.3125 12.9375 -0.125 12.6875 -0.125 C 12.675781 -0.125 12.664062 -0.125 12.65625 -0.125 C 12.644531 -0.125 12.628906 -0.125 12.609375 -0.125 Z M 12.609375 -0.125 "/></g></g></g><g fill="#ffffff" fill-opacity="1"><g transform="translate(70.164735, 31.071897)"><g><path d="M 13.84375 -6.265625 C 13.644531 -6.109375 13.351562 -6 12.96875 -5.9375 C 12.582031 -5.875 12.171875 -5.84375 11.734375 -5.84375 C 11.296875 -5.84375 10.890625 -5.851562 10.515625 -5.875 C 10.140625 -5.894531 9.851562 -5.90625 9.65625 -5.90625 C 8.800781 -5.882812 7.953125 -5.867188 7.109375 -5.859375 C 6.265625 -5.847656 5.414062 -5.84375 4.5625 -5.84375 C 4.300781 -5.84375 4.132812 -5.757812 4.0625 -5.59375 C 3.988281 -5.4375 3.976562 -5.253906 4.03125 -5.046875 C 4.09375 -4.835938 4.171875 -4.660156 4.265625 -4.515625 C 4.617188 -4.066406 5.050781 -3.707031 5.5625 -3.4375 C 6.082031 -3.164062 6.625 -3 7.1875 -2.9375 C 7.8125 -2.875 8.332031 -2.960938 8.75 -3.203125 C 9.164062 -3.441406 9.640625 -3.691406 10.171875 -3.953125 C 10.421875 -4.078125 10.585938 -4.15625 10.671875 -4.1875 C 10.765625 -4.226562 10.921875 -4.15625 11.140625 -3.96875 C 11.367188 -3.789062 11.582031 -3.546875 11.78125 -3.234375 C 11.988281 -2.921875 12.191406 -2.648438 12.390625 -2.421875 C 12.609375 -2.140625 12.597656 -1.875 12.359375 -1.625 C 12.128906 -1.382812 11.773438 -1.160156 11.296875 -0.953125 C 10.828125 -0.742188 10.3125 -0.566406 9.75 -0.421875 C 9.1875 -0.273438 8.675781 -0.160156 8.21875 -0.078125 C 7.769531 0.00390625 7.46875 0.046875 7.3125 0.046875 C 6.207031 0.046875 5.1875 -0.171875 4.25 -0.609375 C 3.320312 -1.046875 2.53125 -1.632812 1.875 -2.375 C 1.21875 -3.125 0.722656 -3.96875 0.390625 -4.90625 C 0.0664062 -5.84375 -0.0546875 -6.828125 0.015625 -7.859375 C 0.0859375 -8.890625 0.40625 -9.890625 0.96875 -10.859375 C 1.394531 -11.617188 1.960938 -12.257812 2.671875 -12.78125 C 3.390625 -13.3125 4.179688 -13.703125 5.046875 -13.953125 C 5.910156 -14.210938 6.796875 -14.328125 7.703125 -14.296875 C 8.609375 -14.273438 9.46875 -14.09375 10.28125 -13.75 C 11.09375 -13.414062 11.804688 -12.914062 12.421875 -12.25 C 12.703125 -11.9375 12.96875 -11.546875 13.21875 -11.078125 C 13.476562 -10.609375 13.695312 -10.097656 13.875 -9.546875 C 14.050781 -9.003906 14.160156 -8.472656 14.203125 -7.953125 C 14.242188 -7.441406 14.191406 -6.972656 14.046875 -6.546875 C 14.015625 -6.441406 13.945312 -6.347656 13.84375 -6.265625 Z M 10.125 -8.84375 C 10.175781 -8.957031 10.191406 -9.078125 10.171875 -9.203125 C 10.148438 -9.398438 10.0625 -9.59375 9.90625 -9.78125 C 9.457031 -10.40625 8.878906 -10.863281 8.171875 -11.15625 C 7.460938 -11.457031 6.738281 -11.441406 6 -11.109375 C 5.664062 -10.960938 5.351562 -10.773438 5.0625 -10.546875 C 4.78125 -10.316406 4.515625 -10.066406 4.265625 -9.796875 C 4.203125 -9.734375 4.132812 -9.660156 4.0625 -9.578125 C 4 -9.492188 3.953125 -9.40625 3.921875 -9.3125 C 3.859375 -9.113281 3.890625 -8.929688 4.015625 -8.765625 C 4.148438 -8.597656 4.316406 -8.515625 4.515625 -8.515625 L 9.546875 -8.515625 C 9.828125 -8.515625 10.019531 -8.625 10.125 -8.84375 Z M 10.125 -8.84375 "/></g></g></g><g fill="#ffffff" fill-opacity="1"><g transform="translate(86.851075, 31.071897)"><g><path d="M 12.421875 -12.734375 C 12.734375 -12.390625 12.832031 -12.019531 12.71875 -11.625 C 12.664062 -11.445312 12.578125 -11.28125 12.453125 -11.125 C 12.328125 -10.96875 12.203125 -10.816406 12.078125 -10.671875 C 11.992188 -10.585938 11.910156 -10.503906 11.828125 -10.421875 C 11.742188 -10.335938 11.660156 -10.253906 11.578125 -10.171875 C 11.441406 -10.023438 11.265625 -9.972656 11.046875 -10.015625 C 10.828125 -10.066406 10.601562 -10.148438 10.375 -10.265625 C 10.15625 -10.378906 9.960938 -10.460938 9.796875 -10.515625 C 9.441406 -10.648438 9.085938 -10.765625 8.734375 -10.859375 C 8.378906 -10.960938 8.007812 -11.035156 7.625 -11.078125 C 7.539062 -11.097656 7.460938 -11.109375 7.390625 -11.109375 C 7.316406 -11.109375 7.238281 -11.109375 7.15625 -11.109375 C 6.351562 -11.109375 5.632812 -10.863281 5 -10.375 C 4.363281 -9.894531 3.929688 -9.25 3.703125 -8.4375 C 3.453125 -7.570312 3.472656 -6.71875 3.765625 -5.875 C 4.066406 -5.03125 4.582031 -4.351562 5.3125 -3.84375 C 5.863281 -3.46875 6.585938 -3.28125 7.484375 -3.28125 C 8.617188 -3.28125 9.53125 -3.550781 10.21875 -4.09375 C 10.550781 -4.363281 10.828125 -4.535156 11.046875 -4.609375 C 11.265625 -4.679688 11.53125 -4.523438 11.84375 -4.140625 C 12.007812 -3.984375 12.171875 -3.804688 12.328125 -3.609375 C 12.484375 -3.421875 12.632812 -3.226562 12.78125 -3.03125 C 12.976562 -2.769531 13.007812 -2.515625 12.875 -2.265625 C 12.75 -2.023438 12.53125 -1.796875 12.21875 -1.578125 C 11.90625 -1.367188 11.578125 -1.1875 11.234375 -1.03125 C 10.898438 -0.875 10.644531 -0.753906 10.46875 -0.671875 C 9.46875 -0.191406 8.414062 0.046875 7.3125 0.046875 C 6.21875 0.046875 5.175781 -0.1875 4.1875 -0.65625 C 3.207031 -1.125 2.332031 -1.785156 1.5625 -2.640625 C 0.894531 -3.410156 0.453125 -4.207031 0.234375 -5.03125 C 0.0234375 -5.851562 -0.0390625 -6.660156 0.03125 -7.453125 C 0.101562 -8.242188 0.238281 -8.960938 0.4375 -9.609375 C 0.875 -10.921875 1.570312 -11.972656 2.53125 -12.765625 C 3.488281 -13.554688 4.6875 -14.039062 6.125 -14.21875 C 6.601562 -14.269531 7.046875 -14.296875 7.453125 -14.296875 C 7.679688 -14.296875 8.019531 -14.265625 8.46875 -14.203125 C 8.914062 -14.148438 9.394531 -14.0625 9.90625 -13.9375 C 10.414062 -13.8125 10.898438 -13.648438 11.359375 -13.453125 C 11.816406 -13.253906 12.171875 -13.015625 12.421875 -12.734375 Z M 12.421875 -12.734375 "/></g></g></g><g fill="#ffffff" fill-opacity="1"><g transform="translate(102.278531, 31.071897)"><g><path d="M 4 -0.640625 C 3.09375 -1.171875 2.492188 -1.867188 2.203125 -2.734375 C 1.921875 -3.609375 1.785156 -4.539062 1.796875 -5.53125 C 1.816406 -6.101562 1.820312 -6.675781 1.8125 -7.25 C 1.800781 -7.832031 1.796875 -8.40625 1.796875 -8.96875 C 1.796875 -9.351562 1.800781 -9.75 1.8125 -10.15625 C 1.820312 -10.5625 1.671875 -10.921875 1.359375 -11.234375 C 1.191406 -11.410156 0.984375 -11.523438 0.734375 -11.578125 C 0.492188 -11.640625 0.316406 -11.796875 0.203125 -12.046875 C 0.148438 -12.160156 0.113281 -12.273438 0.09375 -12.390625 C 0.0820312 -12.503906 0.0664062 -12.617188 0.046875 -12.734375 C 0.0351562 -13.003906 0.0351562 -13.265625 0.046875 -13.515625 C 0.0664062 -13.773438 0.175781 -14.003906 0.375 -14.203125 C 0.539062 -14.347656 0.734375 -14.441406 0.953125 -14.484375 C 1.171875 -14.523438 1.351562 -14.632812 1.5 -14.8125 C 1.78125 -15.144531 1.921875 -15.503906 1.921875 -15.890625 C 1.921875 -16.285156 1.90625 -16.664062 1.875 -17.03125 C 1.84375 -17.3125 1.820312 -17.535156 1.8125 -17.703125 C 1.800781 -17.878906 1.929688 -18.039062 2.203125 -18.1875 C 2.398438 -18.3125 2.648438 -18.375 2.953125 -18.375 C 3.253906 -18.375 3.554688 -18.351562 3.859375 -18.3125 C 4.171875 -18.28125 4.429688 -18.25 4.640625 -18.21875 C 5.066406 -18.164062 5.296875 -18.003906 5.328125 -17.734375 C 5.359375 -17.460938 5.359375 -17.15625 5.328125 -16.8125 C 5.265625 -15.851562 5.4375 -15.144531 5.84375 -14.6875 C 6.039062 -14.476562 6.265625 -14.351562 6.515625 -14.3125 C 6.765625 -14.269531 7.015625 -14.253906 7.265625 -14.265625 C 7.523438 -14.285156 7.769531 -14.285156 8 -14.265625 C 8.226562 -14.253906 8.425781 -14.164062 8.59375 -14 C 8.769531 -13.8125 8.84375 -13.53125 8.8125 -13.15625 C 8.789062 -12.789062 8.765625 -12.492188 8.734375 -12.265625 C 8.703125 -11.953125 8.566406 -11.726562 8.328125 -11.59375 C 8.085938 -11.46875 7.804688 -11.367188 7.484375 -11.296875 C 7.171875 -11.234375 6.859375 -11.15625 6.546875 -11.0625 C 6.242188 -10.976562 6.007812 -10.828125 5.84375 -10.609375 C 5.664062 -10.378906 5.515625 -9.988281 5.390625 -9.4375 C 5.265625 -8.882812 5.191406 -8.265625 5.171875 -7.578125 C 5.160156 -6.898438 5.207031 -6.25 5.3125 -5.625 C 5.425781 -5 5.617188 -4.476562 5.890625 -4.0625 C 6.171875 -3.65625 6.546875 -3.453125 7.015625 -3.453125 C 7.210938 -3.453125 7.421875 -3.492188 7.640625 -3.578125 C 7.859375 -3.660156 8.070312 -3.726562 8.28125 -3.78125 C 8.5 -3.84375 8.691406 -3.832031 8.859375 -3.75 C 9.085938 -3.664062 9.285156 -3.445312 9.453125 -3.09375 C 9.617188 -2.738281 9.75 -2.460938 9.84375 -2.265625 C 9.945312 -2.085938 10.015625 -1.910156 10.046875 -1.734375 C 10.066406 -1.484375 9.96875 -1.285156 9.75 -1.140625 C 9.539062 -1.003906 9.34375 -0.890625 9.15625 -0.796875 C 8.351562 -0.328125 7.5 -0.0625 6.59375 0 C 5.6875 0.0507812 4.820312 -0.160156 4 -0.640625 Z M 4 -0.640625 "/></g></g></g><g fill="#ffffff" fill-opacity="1"><g transform="translate(6.326803, 31.068813)"><g><path d="M 12.40625 -12.71875 C 12.71875 -12.375 12.816406 -12.003906 12.703125 -11.609375 C 12.648438 -11.429688 12.5625 -11.265625 12.4375 -11.109375 C 12.3125 -10.953125 12.1875 -10.800781 12.0625 -10.65625 C 11.976562 -10.570312 11.894531 -10.488281 11.8125 -10.40625 C 11.726562 -10.320312 11.644531 -10.238281 11.5625 -10.15625 C 11.425781 -10.007812 11.25 -9.957031 11.03125 -10 C 10.8125 -10.050781 10.585938 -10.132812 10.359375 -10.25 C 10.140625 -10.363281 9.945312 -10.445312 9.78125 -10.5 C 9.425781 -10.632812 9.070312 -10.75 8.71875 -10.84375 C 8.363281 -10.945312 8 -11.023438 7.625 -11.078125 C 7.539062 -11.085938 7.460938 -11.09375 7.390625 -11.09375 C 7.316406 -11.09375 7.238281 -11.09375 7.15625 -11.09375 C 6.34375 -11.09375 5.617188 -10.847656 4.984375 -10.359375 C 4.359375 -9.878906 3.929688 -9.238281 3.703125 -8.4375 C 3.453125 -7.5625 3.472656 -6.703125 3.765625 -5.859375 C 4.066406 -5.023438 4.578125 -4.351562 5.296875 -3.84375 C 5.859375 -3.46875 6.582031 -3.28125 7.46875 -3.28125 C 8.601562 -3.28125 9.515625 -3.550781 10.203125 -4.09375 C 10.535156 -4.351562 10.8125 -4.519531 11.03125 -4.59375 C 11.25 -4.664062 11.515625 -4.515625 11.828125 -4.140625 C 11.992188 -3.972656 12.15625 -3.796875 12.3125 -3.609375 C 12.46875 -3.421875 12.617188 -3.226562 12.765625 -3.03125 C 12.960938 -2.769531 12.992188 -2.515625 12.859375 -2.265625 C 12.734375 -2.023438 12.515625 -1.796875 12.203125 -1.578125 C 11.890625 -1.359375 11.5625 -1.171875 11.21875 -1.015625 C 10.882812 -0.859375 10.628906 -0.742188 10.453125 -0.671875 C 9.453125 -0.191406 8.398438 0.046875 7.296875 0.046875 C 6.210938 0.046875 5.175781 -0.1875 4.1875 -0.65625 C 3.207031 -1.125 2.328125 -1.785156 1.546875 -2.640625 C 0.890625 -3.410156 0.453125 -4.207031 0.234375 -5.03125 C 0.0234375 -5.851562 -0.0390625 -6.65625 0.03125 -7.4375 C 0.101562 -8.226562 0.238281 -8.945312 0.4375 -9.59375 C 0.863281 -10.90625 1.554688 -11.957031 2.515625 -12.75 C 3.484375 -13.539062 4.679688 -14.023438 6.109375 -14.203125 C 6.585938 -14.253906 7.035156 -14.28125 7.453125 -14.28125 C 7.679688 -14.28125 8.015625 -14.25 8.453125 -14.1875 C 8.898438 -14.132812 9.378906 -14.046875 9.890625 -13.921875 C 10.398438 -13.796875 10.882812 -13.632812 11.34375 -13.4375 C 11.800781 -13.238281 12.15625 -13 12.40625 -12.71875 Z M 12.40625 -12.71875 "/></g></g></g></svg>