<svg xmlns="http://www.w3.org/2000/svg" xmlns:xlink="http://www.w3.org/1999/xlink" width="193" zoomAndPan="magnify" viewBox="0 0 144.75 32.999998" height="44" preserveAspectRatio="xMidYMid meet" version="1.0"><defs><g/><clipPath id="058f4d8dc7"><path d="M 39.5625 1.0625 L 62 1.0625 L 62 8 L 39.5625 8 Z M 39.5625 1.0625 " clip-rule="nonzero"/></clipPath><clipPath id="29e028335c"><path d="M 45 14 L 56 14 L 56 25.019531 L 45 25.019531 Z M 45 14 " clip-rule="nonzero"/></clipPath><clipPath id="2ff62f8ee4"><path d="M 0.15625 15 L 1 15 L 1 16 L 0.15625 16 Z M 0.15625 15 " clip-rule="nonzero"/></clipPath><clipPath id="2d57786c25"><rect x="0" width="69" y="0" height="20"/></clipPath><clipPath id="e459541709"><path d="M 0.300781 4 L 11 4 L 11 16 L 0.300781 16 Z M 0.300781 4 " clip-rule="nonzero"/></clipPath><clipPath id="eb550d6835"><rect x="0" width="13" y="0" height="20"/></clipPath></defs><path fill="#3b82f6" d="M 57.390625 10.558594 C 57.09375 10.558594 56.8125 10.4375 56.609375 10.226562 C 53.289062 6.914062 47.914062 6.914062 44.597656 10.226562 C 44.167969 10.65625 43.464844 10.65625 43.035156 10.226562 C 42.601562 9.792969 42.601562 9.09375 43.035156 8.664062 C 47.21875 4.496094 53.984375 4.496094 58.171875 8.664062 C 58.589844 9.097656 58.589844 9.789062 58.171875 10.226562 C 57.964844 10.4375 57.683594 10.554688 57.390625 10.558594 Z M 57.390625 10.558594 " fill-opacity="1" fill-rule="nonzero"/><g clip-path="url(#058f4d8dc7)"><path fill="#3b82f6" d="M 60.542969 7.40625 C 60.246094 7.40625 59.964844 7.285156 59.761719 7.074219 C 54.707031 2.015625 46.511719 2.011719 41.453125 7.066406 C 41.449219 7.066406 41.449219 7.070312 41.445312 7.074219 C 41.015625 7.503906 40.320312 7.507812 39.886719 7.078125 C 39.886719 7.078125 39.882812 7.074219 39.882812 7.074219 C 39.460938 6.636719 39.460938 5.945312 39.882812 5.507812 C 45.804688 -0.417969 55.414062 -0.421875 61.34375 5.503906 C 61.34375 5.503906 61.347656 5.507812 61.351562 5.507812 C 61.769531 5.945312 61.769531 6.636719 61.351562 7.074219 C 61.136719 7.289062 60.84375 7.410156 60.542969 7.40625 Z M 60.542969 7.40625 " fill-opacity="1" fill-rule="nonzero"/></g><path fill="#3b82f6" d="M 47.058594 13.789062 C 46.449219 13.792969 45.953125 13.300781 45.953125 12.691406 C 45.949219 12.398438 46.066406 12.113281 46.277344 11.90625 C 48.664062 9.515625 52.535156 9.511719 54.921875 11.898438 C 54.925781 11.902344 54.925781 11.902344 54.929688 11.90625 C 55.347656 12.339844 55.347656 13.03125 54.929688 13.46875 C 54.5 13.902344 53.800781 13.902344 53.371094 13.472656 C 53.367188 13.472656 53.367188 13.46875 53.363281 13.46875 C 51.820312 11.992188 49.386719 11.992188 47.839844 13.46875 C 47.632812 13.675781 47.351562 13.792969 47.058594 13.789062 Z M 47.058594 13.789062 " fill-opacity="1" fill-rule="nonzero"/><path fill="#ffffff" d="M 55.492188 19.953125 C 55.5 22.65625 53.3125 24.855469 50.609375 24.863281 C 47.90625 24.871094 45.707031 22.683594 45.699219 19.980469 C 45.695312 17.277344 47.878906 15.078125 50.582031 15.070312 C 50.59375 15.070312 50.601562 15.070312 50.609375 15.070312 C 53.304688 15.078125 55.484375 17.261719 55.492188 19.953125 Z M 55.492188 19.953125 " fill-opacity="1" fill-rule="nonzero"/><g clip-path="url(#29e028335c)"><path fill="#3b82f6" d="M 50.609375 14.609375 C 47.652344 14.601562 45.246094 16.996094 45.238281 19.953125 C 45.230469 22.914062 47.625 25.316406 50.582031 25.324219 C 53.542969 25.332031 55.945312 22.9375 55.953125 19.980469 C 55.953125 19.972656 55.953125 19.960938 55.953125 19.953125 C 55.945312 17.003906 53.558594 14.617188 50.609375 14.609375 Z M 50.609375 24.863281 C 47.90625 24.871094 45.707031 22.683594 45.699219 19.980469 C 45.695312 17.277344 47.878906 15.078125 50.582031 15.070312 C 53.289062 15.0625 55.484375 17.25 55.492188 19.953125 C 55.492188 19.957031 55.492188 19.960938 55.492188 19.964844 C 55.484375 22.660156 53.304688 24.84375 50.609375 24.851562 Z M 50.609375 24.863281 " fill-opacity="1" fill-rule="nonzero"/><path fill="#3b82f6" d="M 55.953125 19.953125 C 55.855469 18.578125 54.992188 17.375 53.722656 16.839844 C 53.183594 15.566406 51.976562 14.707031 50.597656 14.609375 C 49.222656 14.710938 48.019531 15.5625 47.46875 16.828125 C 46.207031 17.375 45.351562 18.582031 45.25 19.953125 C 45.347656 21.332031 46.203125 22.542969 47.46875 23.09375 C 48.019531 24.355469 49.222656 25.210938 50.597656 25.3125 C 51.976562 25.214844 53.183594 24.351562 53.722656 23.082031 C 54.996094 22.542969 55.859375 21.332031 55.953125 19.953125 Z M 54.414062 20.660156 C 54.429688 20.425781 54.429688 20.1875 54.414062 19.953125 C 54.429688 19.722656 54.429688 19.492188 54.414062 19.261719 C 55.09375 19.492188 55.492188 19.75 55.492188 19.953125 C 55.492188 20.160156 55.09375 20.429688 54.414062 20.660156 Z M 50.570312 24.851562 C 50.367188 24.851562 50.097656 24.453125 49.878906 23.785156 C 50.109375 23.785156 50.339844 23.785156 50.570312 23.785156 C 50.800781 23.785156 51.046875 23.785156 51.277344 23.785156 C 51.097656 24.453125 50.8125 24.851562 50.597656 24.851562 Z M 50.570312 23.375 C 50.296875 23.394531 50.023438 23.394531 49.75 23.375 C 49.613281 22.785156 49.53125 22.1875 49.496094 21.582031 L 51.710938 21.582031 C 51.65625 22.164062 51.5625 22.742188 51.429688 23.3125 C 51.152344 23.351562 50.875 23.375 50.597656 23.375 Z M 45.714844 19.953125 C 45.714844 19.75 46.097656 19.492188 46.777344 19.261719 C 46.777344 19.492188 46.777344 19.722656 46.777344 19.953125 C 46.777344 20.183594 46.777344 20.429688 46.777344 20.660156 C 46.097656 20.429688 45.714844 20.171875 45.714844 19.953125 Z M 47.1875 19.953125 C 47.167969 19.679688 47.167969 19.40625 47.1875 19.132812 C 47.753906 18.992188 48.335938 18.898438 48.917969 18.851562 C 48.917969 19.210938 48.917969 19.582031 48.917969 19.953125 C 48.917969 20.324219 48.917969 20.710938 48.917969 21.070312 C 48.355469 21.019531 47.796875 20.925781 47.25 20.785156 C 47.230469 20.507812 47.230469 20.230469 47.25 19.953125 Z M 50.597656 15.070312 C 50.8125 15.070312 51.070312 15.46875 51.300781 16.132812 C 51.070312 16.132812 50.839844 16.132812 50.597656 16.132812 C 50.351562 16.132812 50.136719 16.132812 49.90625 16.132812 C 50.121094 15.46875 50.390625 15.070312 50.597656 15.070312 Z M 50.597656 16.542969 C 50.875 16.523438 51.152344 16.523438 51.429688 16.542969 C 51.5625 17.113281 51.65625 17.691406 51.710938 18.273438 L 49.496094 18.273438 C 49.558594 17.710938 49.664062 17.15625 49.816406 16.609375 C 50.074219 16.570312 50.335938 16.546875 50.597656 16.542969 Z M 51.878906 16.6875 C 52.382812 16.789062 52.875 16.953125 53.339844 17.171875 C 53.5625 17.636719 53.722656 18.128906 53.8125 18.632812 C 53.257812 18.515625 52.699219 18.429688 52.132812 18.378906 C 52.097656 17.808594 52.027344 17.246094 51.929688 16.6875 Z M 51.738281 19.953125 C 51.738281 20.363281 51.738281 20.75 51.738281 21.121094 C 51.378906 21.121094 50.992188 21.121094 50.582031 21.121094 C 50.171875 21.121094 49.800781 21.121094 49.429688 21.121094 C 49.429688 20.75 49.429688 20.363281 49.429688 19.953125 C 49.429688 19.542969 49.429688 19.171875 49.429688 18.800781 C 49.800781 18.800781 50.1875 18.800781 50.582031 18.800781 C 50.980469 18.800781 51.378906 18.800781 51.738281 18.800781 C 51.769531 19.167969 51.789062 19.550781 51.789062 19.953125 Z M 49.019531 18.378906 C 48.453125 18.429688 47.886719 18.515625 47.328125 18.632812 C 47.433594 18.125 47.597656 17.628906 47.816406 17.160156 C 48.28125 16.945312 48.773438 16.792969 49.277344 16.699219 C 49.152344 17.25 49.066406 17.8125 49.019531 18.378906 Z M 49.019531 21.542969 C 49.066406 22.113281 49.152344 22.675781 49.277344 23.234375 C 48.773438 23.132812 48.285156 22.972656 47.816406 22.761719 C 47.597656 22.289062 47.433594 21.796875 47.328125 21.285156 C 47.886719 21.417969 48.449219 21.515625 49.019531 21.582031 Z M 52.1875 21.542969 C 52.75 21.488281 53.308594 21.402344 53.863281 21.285156 C 53.773438 21.792969 53.613281 22.285156 53.390625 22.746094 C 52.925781 22.96875 52.433594 23.132812 51.929688 23.234375 C 52.046875 22.6875 52.128906 22.136719 52.1875 21.582031 Z M 52.1875 21.070312 C 52.1875 20.710938 52.1875 20.339844 52.1875 19.953125 C 52.1875 19.570312 52.1875 19.210938 52.1875 18.851562 C 52.769531 18.898438 53.347656 18.992188 53.914062 19.132812 C 54 19.679688 54 20.238281 53.914062 20.785156 C 53.359375 20.925781 52.792969 21.019531 52.222656 21.070312 Z M 55.300781 19.171875 C 54.996094 18.988281 54.667969 18.851562 54.324219 18.761719 C 54.253906 18.324219 54.144531 17.894531 53.992188 17.480469 C 54.621094 17.875 55.09375 18.472656 55.339844 19.171875 Z M 52.992188 16.53125 C 52.578125 16.375 52.148438 16.261719 51.710938 16.199219 C 51.652344 15.84375 51.542969 15.5 51.390625 15.171875 C 52.070312 15.441406 52.644531 15.914062 53.03125 16.53125 Z M 49.816406 15.171875 C 49.636719 15.484375 49.503906 15.816406 49.417969 16.160156 C 48.980469 16.226562 48.550781 16.335938 48.136719 16.492188 C 48.535156 15.882812 49.125 15.417969 49.816406 15.171875 Z M 47.25 17.492188 C 47.09375 17.90625 46.984375 18.335938 46.917969 18.773438 C 46.570312 18.867188 46.238281 19.003906 45.929688 19.183594 C 46.15625 18.515625 46.59375 17.933594 47.175781 17.53125 Z M 45.96875 20.710938 C 46.277344 20.890625 46.609375 21.027344 46.957031 21.121094 C 47.023438 21.558594 47.132812 21.988281 47.289062 22.402344 C 46.636719 22.03125 46.132812 21.445312 45.855469 20.75 Z M 48.289062 23.351562 C 48.703125 23.507812 49.132812 23.617188 49.570312 23.683594 C 49.660156 24.027344 49.792969 24.359375 49.96875 24.671875 C 49.242188 24.460938 48.609375 24.007812 48.175781 23.390625 Z M 51.507812 24.632812 C 51.6875 24.324219 51.824219 23.992188 51.917969 23.644531 C 52.355469 23.582031 52.785156 23.46875 53.199219 23.3125 C 52.773438 23.972656 52.136719 24.464844 51.390625 24.707031 Z M 54.148438 22.3125 C 54.296875 21.894531 54.410156 21.46875 54.480469 21.03125 C 54.824219 20.941406 55.152344 20.804688 55.453125 20.621094 C 55.207031 21.359375 54.703125 21.988281 54.03125 22.390625 Z M 54.148438 22.3125 " fill-opacity="1" fill-rule="nonzero"/></g><g transform="matrix(1, 0, 0, 1, 48, 10)"><g clip-path="url(#2d57786c25)"><g clip-path="url(#2ff62f8ee4)"><g fill="#ffffff" fill-opacity="1"><g transform="translate(0.374155, 15.289229)"><g/></g></g></g><g fill="#ffffff" fill-opacity="1"><g transform="translate(9.791844, 15.289229)"><g><path d="M 9.625 -0.09375 C 9.289062 -0.101562 8.957031 -0.101562 8.625 -0.09375 C 8.300781 -0.09375 7.96875 -0.09375 7.625 -0.09375 C 7.550781 -0.09375 7.488281 -0.222656 7.4375 -0.484375 C 7.394531 -0.753906 7.367188 -1.101562 7.359375 -1.53125 C 7.347656 -1.957031 7.34375 -2.414062 7.34375 -2.90625 C 7.34375 -3.40625 7.347656 -3.882812 7.359375 -4.34375 C 7.367188 -4.8125 7.378906 -5.210938 7.390625 -5.546875 C 7.398438 -5.890625 7.40625 -6.113281 7.40625 -6.21875 C 7.382812 -6.914062 7.269531 -7.445312 7.0625 -7.8125 C 6.863281 -8.175781 6.609375 -8.425781 6.296875 -8.5625 C 5.992188 -8.707031 5.691406 -8.78125 5.390625 -8.78125 L 5.34375 -8.78125 C 4.632812 -8.78125 4.054688 -8.535156 3.609375 -8.046875 C 3.160156 -7.566406 2.925781 -6.9375 2.90625 -6.15625 C 2.882812 -5.65625 2.875 -5.148438 2.875 -4.640625 C 2.875 -4.140625 2.875 -3.640625 2.875 -3.140625 C 2.894531 -2.753906 2.929688 -2.328125 2.984375 -1.859375 C 3.035156 -1.390625 3.023438 -0.957031 2.953125 -0.5625 C 2.898438 -0.269531 2.78125 -0.113281 2.59375 -0.09375 C 2.414062 -0.0820312 2.21875 -0.0703125 2 -0.0625 C 1.84375 -0.0390625 1.640625 -0.0195312 1.390625 0 C 1.148438 0.0078125 0.914062 0 0.6875 -0.03125 C 0.457031 -0.0703125 0.285156 -0.164062 0.171875 -0.3125 C 0.0351562 -0.519531 -0.015625 -0.765625 0.015625 -1.046875 C 0.0546875 -1.328125 0.0820312 -1.570312 0.09375 -1.78125 C 0.144531 -2.476562 0.179688 -3.179688 0.203125 -3.890625 C 0.242188 -5.253906 0.207031 -6.609375 0.09375 -7.953125 C 0.0703125 -8.210938 0.0507812 -8.515625 0.03125 -8.859375 C 0.0195312 -9.210938 0.046875 -9.550781 0.109375 -9.875 C 0.179688 -10.195312 0.320312 -10.445312 0.53125 -10.625 C 0.738281 -10.8125 1.050781 -10.863281 1.46875 -10.78125 C 1.8125 -10.71875 2.144531 -10.640625 2.46875 -10.546875 C 2.789062 -10.453125 3.125 -10.375 3.46875 -10.3125 C 3.488281 -10.3125 3.515625 -10.3125 3.546875 -10.3125 C 3.578125 -10.3125 3.597656 -10.3125 3.609375 -10.3125 C 3.847656 -10.3125 4.085938 -10.359375 4.328125 -10.453125 C 4.566406 -10.546875 4.8125 -10.644531 5.0625 -10.75 C 5.3125 -10.851562 5.5625 -10.910156 5.8125 -10.921875 C 6.539062 -10.984375 7.234375 -10.859375 7.890625 -10.546875 C 8.453125 -10.273438 8.882812 -9.925781 9.1875 -9.5 C 9.5 -9.082031 9.722656 -8.613281 9.859375 -8.09375 C 10.003906 -7.582031 10.09375 -7.050781 10.125 -6.5 C 10.164062 -5.945312 10.195312 -5.398438 10.21875 -4.859375 C 10.21875 -4.742188 10.226562 -4.507812 10.25 -4.15625 C 10.28125 -3.8125 10.296875 -3.410156 10.296875 -2.953125 C 10.304688 -2.492188 10.300781 -2.046875 10.28125 -1.609375 C 10.257812 -1.171875 10.195312 -0.804688 10.09375 -0.515625 C 10 -0.234375 9.859375 -0.09375 9.671875 -0.09375 C 9.660156 -0.09375 9.648438 -0.09375 9.640625 -0.09375 C 9.640625 -0.09375 9.632812 -0.09375 9.625 -0.09375 Z M 9.625 -0.09375 "/></g></g></g><g fill="#ffffff" fill-opacity="1"><g transform="translate(21.996632, 15.289229)"><g><path d="M 9.625 -0.09375 C 9.289062 -0.101562 8.957031 -0.101562 8.625 -0.09375 C 8.300781 -0.09375 7.96875 -0.09375 7.625 -0.09375 C 7.550781 -0.09375 7.488281 -0.222656 7.4375 -0.484375 C 7.394531 -0.753906 7.367188 -1.101562 7.359375 -1.53125 C 7.347656 -1.957031 7.34375 -2.414062 7.34375 -2.90625 C 7.34375 -3.40625 7.347656 -3.882812 7.359375 -4.34375 C 7.367188 -4.8125 7.378906 -5.210938 7.390625 -5.546875 C 7.398438 -5.890625 7.40625 -6.113281 7.40625 -6.21875 C 7.382812 -6.914062 7.269531 -7.445312 7.0625 -7.8125 C 6.863281 -8.175781 6.609375 -8.425781 6.296875 -8.5625 C 5.992188 -8.707031 5.691406 -8.78125 5.390625 -8.78125 L 5.34375 -8.78125 C 4.632812 -8.78125 4.054688 -8.535156 3.609375 -8.046875 C 3.160156 -7.566406 2.925781 -6.9375 2.90625 -6.15625 C 2.882812 -5.65625 2.875 -5.148438 2.875 -4.640625 C 2.875 -4.140625 2.875 -3.640625 2.875 -3.140625 C 2.894531 -2.753906 2.929688 -2.328125 2.984375 -1.859375 C 3.035156 -1.390625 3.023438 -0.957031 2.953125 -0.5625 C 2.898438 -0.269531 2.78125 -0.113281 2.59375 -0.09375 C 2.414062 -0.0820312 2.21875 -0.0703125 2 -0.0625 C 1.84375 -0.0390625 1.640625 -0.0195312 1.390625 0 C 1.148438 0.0078125 0.914062 0 0.6875 -0.03125 C 0.457031 -0.0703125 0.285156 -0.164062 0.171875 -0.3125 C 0.0351562 -0.519531 -0.015625 -0.765625 0.015625 -1.046875 C 0.0546875 -1.328125 0.0820312 -1.570312 0.09375 -1.78125 C 0.144531 -2.476562 0.179688 -3.179688 0.203125 -3.890625 C 0.242188 -5.253906 0.207031 -6.609375 0.09375 -7.953125 C 0.0703125 -8.210938 0.0507812 -8.515625 0.03125 -8.859375 C 0.0195312 -9.210938 0.046875 -9.550781 0.109375 -9.875 C 0.179688 -10.195312 0.320312 -10.445312 0.53125 -10.625 C 0.738281 -10.8125 1.050781 -10.863281 1.46875 -10.78125 C 1.8125 -10.71875 2.144531 -10.640625 2.46875 -10.546875 C 2.789062 -10.453125 3.125 -10.375 3.46875 -10.3125 C 3.488281 -10.3125 3.515625 -10.3125 3.546875 -10.3125 C 3.578125 -10.3125 3.597656 -10.3125 3.609375 -10.3125 C 3.847656 -10.3125 4.085938 -10.359375 4.328125 -10.453125 C 4.566406 -10.546875 4.8125 -10.644531 5.0625 -10.75 C 5.3125 -10.851562 5.5625 -10.910156 5.8125 -10.921875 C 6.539062 -10.984375 7.234375 -10.859375 7.890625 -10.546875 C 8.453125 -10.273438 8.882812 -9.925781 9.1875 -9.5 C 9.5 -9.082031 9.722656 -8.613281 9.859375 -8.09375 C 10.003906 -7.582031 10.09375 -7.050781 10.125 -6.5 C 10.164062 -5.945312 10.195312 -5.398438 10.21875 -4.859375 C 10.21875 -4.742188 10.226562 -4.507812 10.25 -4.15625 C 10.28125 -3.8125 10.296875 -3.410156 10.296875 -2.953125 C 10.304688 -2.492188 10.300781 -2.046875 10.28125 -1.609375 C 10.257812 -1.171875 10.195312 -0.804688 10.09375 -0.515625 C 10 -0.234375 9.859375 -0.09375 9.671875 -0.09375 C 9.660156 -0.09375 9.648438 -0.09375 9.640625 -0.09375 C 9.640625 -0.09375 9.632812 -0.09375 9.625 -0.09375 Z M 9.625 -0.09375 "/></g></g></g><g fill="#ffffff" fill-opacity="1"><g transform="translate(34.20142, 15.289229)"><g><path d="M 10.5625 -4.78125 C 10.414062 -4.65625 10.191406 -4.570312 9.890625 -4.53125 C 9.597656 -4.488281 9.285156 -4.46875 8.953125 -4.46875 C 8.617188 -4.46875 8.304688 -4.472656 8.015625 -4.484375 C 7.734375 -4.492188 7.515625 -4.5 7.359375 -4.5 C 6.703125 -4.488281 6.054688 -4.476562 5.421875 -4.46875 C 4.785156 -4.46875 4.140625 -4.46875 3.484375 -4.46875 C 3.285156 -4.46875 3.15625 -4.398438 3.09375 -4.265625 C 3.039062 -4.140625 3.035156 -4 3.078125 -3.84375 C 3.117188 -3.6875 3.175781 -3.554688 3.25 -3.453125 C 3.519531 -3.109375 3.851562 -2.832031 4.25 -2.625 C 4.644531 -2.414062 5.054688 -2.285156 5.484375 -2.234375 C 5.953125 -2.191406 6.347656 -2.257812 6.671875 -2.4375 C 6.992188 -2.625 7.351562 -2.816406 7.75 -3.015625 C 7.945312 -3.109375 8.078125 -3.164062 8.140625 -3.1875 C 8.210938 -3.21875 8.328125 -3.164062 8.484375 -3.03125 C 8.660156 -2.894531 8.828125 -2.707031 8.984375 -2.46875 C 9.140625 -2.226562 9.296875 -2.019531 9.453125 -1.84375 C 9.617188 -1.632812 9.613281 -1.429688 9.4375 -1.234375 C 9.257812 -1.046875 8.988281 -0.875 8.625 -0.71875 C 8.257812 -0.5625 7.863281 -0.425781 7.4375 -0.3125 C 7.007812 -0.207031 6.625 -0.125 6.28125 -0.0625 C 5.9375 0 5.703125 0.03125 5.578125 0.03125 C 4.734375 0.03125 3.957031 -0.128906 3.25 -0.453125 C 2.539062 -0.785156 1.929688 -1.238281 1.421875 -1.8125 C 0.921875 -2.382812 0.546875 -3.023438 0.296875 -3.734375 C 0.046875 -4.453125 -0.0507812 -5.203125 0 -5.984375 C 0.0625 -6.773438 0.304688 -7.539062 0.734375 -8.28125 C 1.054688 -8.863281 1.488281 -9.351562 2.03125 -9.75 C 2.582031 -10.15625 3.1875 -10.453125 3.84375 -10.640625 C 4.507812 -10.835938 5.1875 -10.925781 5.875 -10.90625 C 6.5625 -10.882812 7.21875 -10.742188 7.84375 -10.484375 C 8.46875 -10.234375 9.007812 -9.851562 9.46875 -9.34375 C 9.6875 -9.101562 9.890625 -8.800781 10.078125 -8.4375 C 10.273438 -8.082031 10.441406 -7.695312 10.578125 -7.28125 C 10.710938 -6.875 10.796875 -6.472656 10.828125 -6.078125 C 10.859375 -5.679688 10.820312 -5.316406 10.71875 -4.984375 C 10.6875 -4.910156 10.632812 -4.84375 10.5625 -4.78125 Z M 7.71875 -6.734375 C 7.757812 -6.828125 7.769531 -6.921875 7.75 -7.015625 C 7.738281 -7.171875 7.671875 -7.316406 7.546875 -7.453125 C 7.210938 -7.929688 6.773438 -8.28125 6.234375 -8.5 C 5.691406 -8.726562 5.140625 -8.71875 4.578125 -8.46875 C 4.328125 -8.351562 4.09375 -8.207031 3.875 -8.03125 C 3.65625 -7.863281 3.445312 -7.675781 3.25 -7.46875 C 3.207031 -7.425781 3.160156 -7.375 3.109375 -7.3125 C 3.054688 -7.25 3.019531 -7.175781 3 -7.09375 C 2.945312 -6.945312 2.96875 -6.8125 3.0625 -6.6875 C 3.164062 -6.5625 3.296875 -6.5 3.453125 -6.5 L 7.28125 -6.5 C 7.5 -6.5 7.644531 -6.578125 7.71875 -6.734375 Z M 7.71875 -6.734375 "/></g></g></g><g fill="#ffffff" fill-opacity="1"><g transform="translate(46.933577, 15.289229)"><g><path d="M 9.46875 -9.71875 C 9.707031 -9.445312 9.785156 -9.164062 9.703125 -8.875 C 9.660156 -8.726562 9.59375 -8.59375 9.5 -8.46875 C 9.40625 -8.351562 9.304688 -8.242188 9.203125 -8.140625 C 9.140625 -8.078125 9.078125 -8.007812 9.015625 -7.9375 C 8.953125 -7.875 8.890625 -7.8125 8.828125 -7.75 C 8.734375 -7.644531 8.597656 -7.609375 8.421875 -7.640625 C 8.253906 -7.679688 8.082031 -7.742188 7.90625 -7.828125 C 7.738281 -7.921875 7.59375 -7.984375 7.46875 -8.015625 C 7.195312 -8.117188 6.925781 -8.207031 6.65625 -8.28125 C 6.382812 -8.351562 6.101562 -8.410156 5.8125 -8.453125 C 5.75 -8.460938 5.6875 -8.46875 5.625 -8.46875 C 5.570312 -8.46875 5.515625 -8.46875 5.453125 -8.46875 C 4.835938 -8.46875 4.289062 -8.28125 3.8125 -7.90625 C 3.332031 -7.539062 3.003906 -7.050781 2.828125 -6.4375 C 2.640625 -5.769531 2.65625 -5.113281 2.875 -4.46875 C 3.101562 -3.832031 3.492188 -3.320312 4.046875 -2.9375 C 4.472656 -2.644531 5.023438 -2.5 5.703125 -2.5 C 6.566406 -2.5 7.265625 -2.707031 7.796875 -3.125 C 8.046875 -3.320312 8.253906 -3.445312 8.421875 -3.5 C 8.597656 -3.5625 8.800781 -3.445312 9.03125 -3.15625 C 9.15625 -3.03125 9.273438 -2.894531 9.390625 -2.75 C 9.515625 -2.613281 9.632812 -2.46875 9.75 -2.3125 C 9.90625 -2.113281 9.929688 -1.921875 9.828125 -1.734375 C 9.722656 -1.546875 9.550781 -1.367188 9.3125 -1.203125 C 9.082031 -1.035156 8.835938 -0.894531 8.578125 -0.78125 C 8.316406 -0.664062 8.117188 -0.578125 7.984375 -0.515625 C 7.210938 -0.148438 6.410156 0.03125 5.578125 0.03125 C 4.742188 0.03125 3.953125 -0.144531 3.203125 -0.5 C 2.453125 -0.851562 1.78125 -1.359375 1.1875 -2.015625 C 0.6875 -2.609375 0.351562 -3.21875 0.1875 -3.84375 C 0.0195312 -4.46875 -0.0351562 -5.082031 0.015625 -5.6875 C 0.078125 -6.289062 0.1875 -6.835938 0.34375 -7.328125 C 0.664062 -8.328125 1.191406 -9.128906 1.921875 -9.734375 C 2.660156 -10.335938 3.578125 -10.707031 4.671875 -10.84375 C 5.035156 -10.882812 5.375 -10.90625 5.6875 -10.90625 C 5.863281 -10.90625 6.117188 -10.878906 6.453125 -10.828125 C 6.796875 -10.785156 7.160156 -10.71875 7.546875 -10.625 C 7.941406 -10.53125 8.3125 -10.40625 8.65625 -10.25 C 9.007812 -10.101562 9.28125 -9.925781 9.46875 -9.71875 Z M 9.46875 -9.71875 "/></g></g></g><g fill="#ffffff" fill-opacity="1"><g transform="translate(58.705177, 15.289229)"><g><path d="M 3.046875 -0.484375 C 2.359375 -0.890625 1.90625 -1.425781 1.6875 -2.09375 C 1.46875 -2.757812 1.363281 -3.46875 1.375 -4.21875 C 1.382812 -4.65625 1.382812 -5.09375 1.375 -5.53125 C 1.375 -5.96875 1.375 -6.398438 1.375 -6.828125 C 1.375 -7.128906 1.375 -7.429688 1.375 -7.734375 C 1.382812 -8.046875 1.269531 -8.320312 1.03125 -8.5625 C 0.90625 -8.707031 0.75 -8.800781 0.5625 -8.84375 C 0.375 -8.882812 0.238281 -9 0.15625 -9.1875 C 0.113281 -9.269531 0.0859375 -9.351562 0.078125 -9.4375 C 0.0664062 -9.53125 0.0507812 -9.625 0.03125 -9.71875 C 0.0195312 -9.914062 0.0195312 -10.109375 0.03125 -10.296875 C 0.0507812 -10.492188 0.132812 -10.671875 0.28125 -10.828125 C 0.40625 -10.941406 0.550781 -11.015625 0.71875 -11.046875 C 0.894531 -11.078125 1.039062 -11.160156 1.15625 -11.296875 C 1.363281 -11.546875 1.46875 -11.820312 1.46875 -12.125 C 1.46875 -12.425781 1.457031 -12.710938 1.4375 -12.984375 C 1.40625 -13.203125 1.382812 -13.375 1.375 -13.5 C 1.375 -13.632812 1.472656 -13.757812 1.671875 -13.875 C 1.828125 -13.96875 2.019531 -14.015625 2.25 -14.015625 C 2.476562 -14.015625 2.707031 -14 2.9375 -13.96875 C 3.175781 -13.945312 3.378906 -13.921875 3.546875 -13.890625 C 3.867188 -13.859375 4.039062 -13.738281 4.0625 -13.53125 C 4.09375 -13.320312 4.09375 -13.085938 4.0625 -12.828125 C 4.007812 -12.097656 4.144531 -11.554688 4.46875 -11.203125 C 4.613281 -11.035156 4.78125 -10.9375 4.96875 -10.90625 C 5.15625 -10.875 5.347656 -10.863281 5.546875 -10.875 C 5.742188 -10.894531 5.925781 -10.894531 6.09375 -10.875 C 6.269531 -10.863281 6.421875 -10.796875 6.546875 -10.671875 C 6.691406 -10.535156 6.753906 -10.328125 6.734375 -10.046875 C 6.710938 -9.765625 6.691406 -9.535156 6.671875 -9.359375 C 6.640625 -9.117188 6.53125 -8.945312 6.34375 -8.84375 C 6.164062 -8.75 5.953125 -8.675781 5.703125 -8.625 C 5.460938 -8.570312 5.226562 -8.507812 5 -8.4375 C 4.769531 -8.375 4.59375 -8.257812 4.46875 -8.09375 C 4.320312 -7.914062 4.203125 -7.617188 4.109375 -7.203125 C 4.015625 -6.785156 3.960938 -6.316406 3.953125 -5.796875 C 3.941406 -5.273438 3.976562 -4.773438 4.0625 -4.296875 C 4.144531 -3.816406 4.289062 -3.421875 4.5 -3.109375 C 4.707031 -2.796875 4.988281 -2.640625 5.34375 -2.640625 C 5.5 -2.640625 5.660156 -2.671875 5.828125 -2.734375 C 5.992188 -2.796875 6.160156 -2.847656 6.328125 -2.890625 C 6.492188 -2.929688 6.640625 -2.921875 6.765625 -2.859375 C 6.929688 -2.796875 7.078125 -2.628906 7.203125 -2.359375 C 7.335938 -2.085938 7.441406 -1.878906 7.515625 -1.734375 C 7.585938 -1.597656 7.632812 -1.457031 7.65625 -1.3125 C 7.675781 -1.125 7.601562 -0.976562 7.4375 -0.875 C 7.269531 -0.769531 7.117188 -0.679688 6.984375 -0.609375 C 6.367188 -0.253906 5.710938 -0.0507812 5.015625 0 C 4.328125 0.0390625 3.671875 -0.117188 3.046875 -0.484375 Z M 3.046875 -0.484375 "/></g></g></g></g></g><g transform="matrix(1, 0, 0, 1, 33, 10)"><g clip-path="url(#eb550d6835)"><g clip-path="url(#e459541709)"><g fill="#ffffff" fill-opacity="1"><g transform="translate(0.673983, 15.289045)"><g><path d="M 9.484375 -9.71875 C 9.722656 -9.457031 9.796875 -9.175781 9.703125 -8.875 C 9.660156 -8.738281 9.59375 -8.609375 9.5 -8.484375 C 9.40625 -8.367188 9.3125 -8.253906 9.21875 -8.140625 C 9.15625 -8.078125 9.09375 -8.015625 9.03125 -7.953125 C 8.96875 -7.890625 8.90625 -7.828125 8.84375 -7.765625 C 8.738281 -7.648438 8.597656 -7.609375 8.421875 -7.640625 C 8.253906 -7.679688 8.085938 -7.742188 7.921875 -7.828125 C 7.753906 -7.921875 7.609375 -7.988281 7.484375 -8.03125 C 7.203125 -8.125 6.925781 -8.207031 6.65625 -8.28125 C 6.382812 -8.363281 6.109375 -8.421875 5.828125 -8.453125 C 5.765625 -8.472656 5.703125 -8.484375 5.640625 -8.484375 C 5.585938 -8.484375 5.53125 -8.484375 5.46875 -8.484375 C 4.851562 -8.484375 4.300781 -8.296875 3.8125 -7.921875 C 3.332031 -7.554688 3.003906 -7.0625 2.828125 -6.4375 C 2.640625 -5.78125 2.65625 -5.128906 2.875 -4.484375 C 3.101562 -3.847656 3.492188 -3.332031 4.046875 -2.9375 C 4.472656 -2.644531 5.023438 -2.5 5.703125 -2.5 C 6.578125 -2.5 7.273438 -2.707031 7.796875 -3.125 C 8.046875 -3.320312 8.253906 -3.445312 8.421875 -3.5 C 8.597656 -3.5625 8.804688 -3.453125 9.046875 -3.171875 C 9.171875 -3.046875 9.289062 -2.910156 9.40625 -2.765625 C 9.53125 -2.617188 9.648438 -2.46875 9.765625 -2.3125 C 9.910156 -2.113281 9.929688 -1.921875 9.828125 -1.734375 C 9.734375 -1.546875 9.566406 -1.367188 9.328125 -1.203125 C 9.085938 -1.046875 8.835938 -0.90625 8.578125 -0.78125 C 8.328125 -0.664062 8.128906 -0.578125 7.984375 -0.515625 C 7.222656 -0.148438 6.421875 0.03125 5.578125 0.03125 C 4.742188 0.03125 3.953125 -0.144531 3.203125 -0.5 C 2.453125 -0.851562 1.78125 -1.359375 1.1875 -2.015625 C 0.6875 -2.609375 0.351562 -3.21875 0.1875 -3.84375 C 0.0195312 -4.46875 -0.0351562 -5.082031 0.015625 -5.6875 C 0.078125 -6.289062 0.1875 -6.835938 0.34375 -7.328125 C 0.664062 -8.335938 1.191406 -9.140625 1.921875 -9.734375 C 2.660156 -10.335938 3.578125 -10.710938 4.671875 -10.859375 C 5.035156 -10.890625 5.375 -10.90625 5.6875 -10.90625 C 5.863281 -10.90625 6.117188 -10.882812 6.453125 -10.84375 C 6.796875 -10.800781 7.160156 -10.734375 7.546875 -10.640625 C 7.941406 -10.546875 8.316406 -10.421875 8.671875 -10.265625 C 9.023438 -10.117188 9.296875 -9.9375 9.484375 -9.71875 Z M 9.484375 -9.71875 "/></g></g></g></g></g></g></svg>