<svg xmlns="http://www.w3.org/2000/svg" xmlns:xlink="http://www.w3.org/1999/xlink" width="193" zoomAndPan="magnify" viewBox="0 0 144.75 32.999998" height="44" preserveAspectRatio="xMidYMid meet" version="1.0"><defs><g/><clipPath id="ab68b5b041"><path d="M 14.035156 0.542969 L 43.234375 0.542969 L 43.234375 9 L 14.035156 9 Z M 14.035156 0.542969 " clip-rule="nonzero"/></clipPath><clipPath id="9445ef70d0"><path d="M 21 18 L 36 18 L 36 32.738281 L 21 32.738281 Z M 21 18 " clip-rule="nonzero"/></clipPath><clipPath id="fcd21cd45b"><path d="M 23 9 L 127 9 L 127 32.96875 L 23 32.96875 Z M 23 9 " clip-rule="nonzero"/></clipPath><clipPath id="7947207c63"><path d="M 0.238281 22 L 1 22 L 1 23 L 0.238281 23 Z M 0.238281 22 " clip-rule="nonzero"/></clipPath><clipPath id="b98a0970f3"><path d="M 14 6 L 31 6 L 31 23.96875 L 14 23.96875 Z M 14 6 " clip-rule="nonzero"/></clipPath><clipPath id="6292fd747b"><path d="M 33 6 L 50 6 L 50 23.96875 L 33 23.96875 Z M 33 6 " clip-rule="nonzero"/></clipPath><clipPath id="ecacc0bb19"><path d="M 51 6 L 69 6 L 69 23.96875 L 51 23.96875 Z M 51 6 " clip-rule="nonzero"/></clipPath><clipPath id="0123517490"><path d="M 71 6 L 87 6 L 87 23.96875 L 71 23.96875 Z M 71 6 " clip-rule="nonzero"/></clipPath><clipPath id="07bd2f530b"><path d="M 89 1 L 101 1 L 101 23.96875 L 89 23.96875 Z M 89 1 " clip-rule="nonzero"/></clipPath><clipPath id="ad89cad5cd"><rect x="0" width="104" y="0" height="24"/></clipPath></defs><path fill="#3b82f6" d="M 37.476562 13.035156 C 37.085938 13.03125 36.714844 12.875 36.449219 12.59375 C 32.085938 8.238281 25.019531 8.238281 20.65625 12.59375 C 20.089844 13.164062 19.167969 13.164062 18.601562 12.59375 C 18.035156 12.027344 18.035156 11.105469 18.601562 10.539062 C 24.105469 5.0625 33 5.0625 38.503906 10.539062 C 39.054688 11.113281 39.054688 12.019531 38.503906 12.59375 C 38.230469 12.871094 37.863281 13.027344 37.476562 13.035156 Z M 37.476562 13.035156 " fill-opacity="1" fill-rule="nonzero"/><g clip-path="url(#ab68b5b041)"><path fill="#3b82f6" d="M 41.621094 8.886719 C 41.234375 8.886719 40.863281 8.730469 40.59375 8.449219 C 33.949219 1.800781 23.171875 1.792969 16.523438 8.4375 C 16.519531 8.441406 16.515625 8.445312 16.511719 8.449219 C 15.949219 9.015625 15.03125 9.019531 14.460938 8.457031 C 14.460938 8.453125 14.457031 8.453125 14.457031 8.449219 C 13.902344 7.875 13.902344 6.96875 14.457031 6.394531 C 22.246094 -1.402344 34.878906 -1.40625 42.671875 6.382812 C 42.675781 6.386719 42.679688 6.390625 42.683594 6.394531 C 43.234375 6.96875 43.234375 7.875 42.683594 8.449219 C 42.402344 8.734375 42.019531 8.890625 41.621094 8.886719 Z M 41.621094 8.886719 " fill-opacity="1" fill-rule="nonzero"/></g><path fill="#3b82f6" d="M 23.894531 17.28125 C 23.09375 17.285156 22.441406 16.636719 22.4375 15.835938 C 22.433594 15.449219 22.589844 15.078125 22.863281 14.804688 C 26.003906 11.660156 31.089844 11.660156 34.234375 14.796875 C 34.234375 14.796875 34.238281 14.800781 34.238281 14.804688 C 34.792969 15.375 34.792969 16.285156 34.238281 16.859375 C 33.675781 17.425781 32.757812 17.429688 32.191406 16.863281 C 32.1875 16.863281 32.1875 16.859375 32.183594 16.859375 C 30.152344 14.917969 26.953125 14.917969 24.921875 16.859375 C 24.648438 17.132812 24.277344 17.285156 23.894531 17.28125 Z M 23.894531 17.28125 " fill-opacity="1" fill-rule="nonzero"/><path fill="#ffffff" d="M 34.980469 25.386719 C 34.992188 28.941406 32.117188 31.832031 28.5625 31.839844 C 25.003906 31.847656 22.117188 28.976562 22.105469 25.417969 C 22.097656 21.863281 24.972656 18.972656 28.527344 18.964844 C 28.539062 18.964844 28.550781 18.964844 28.5625 18.964844 C 32.101562 18.972656 34.972656 21.84375 34.980469 25.386719 Z M 34.980469 25.386719 " fill-opacity="1" fill-rule="nonzero"/><g clip-path="url(#9445ef70d0)"><path fill="#3b82f6" d="M 28.5625 18.359375 C 24.671875 18.347656 21.507812 21.496094 21.5 25.386719 C 21.492188 29.277344 24.636719 32.4375 28.527344 32.445312 C 32.417969 32.457031 35.578125 29.308594 35.589844 25.417969 C 35.589844 25.410156 35.589844 25.398438 35.589844 25.386719 C 35.578125 21.507812 32.4375 18.367188 28.5625 18.359375 Z M 28.5625 31.839844 C 25.003906 31.847656 22.117188 28.976562 22.105469 25.417969 C 22.097656 21.863281 24.972656 18.972656 28.527344 18.964844 C 32.082031 18.957031 34.972656 21.832031 34.980469 25.386719 C 34.980469 25.390625 34.980469 25.398438 34.980469 25.402344 C 34.972656 28.945312 32.101562 31.8125 28.5625 31.824219 Z M 28.5625 31.839844 " fill-opacity="1" fill-rule="nonzero"/><path fill="#3b82f6" d="M 35.589844 25.386719 C 35.457031 23.578125 34.324219 21.996094 32.65625 21.289062 C 31.945312 19.617188 30.355469 18.484375 28.542969 18.359375 C 26.738281 18.492188 25.152344 19.613281 24.433594 21.273438 C 22.769531 21.996094 21.648438 23.578125 21.515625 25.386719 C 21.640625 27.199219 22.765625 28.789062 24.433594 29.515625 C 25.152344 31.175781 26.738281 32.296875 28.542969 32.429688 C 30.355469 32.300781 31.945312 31.171875 32.65625 29.496094 C 34.332031 28.789062 35.464844 27.199219 35.589844 25.386719 Z M 33.566406 26.3125 C 33.582031 26.003906 33.582031 25.695312 33.566406 25.386719 C 33.582031 25.082031 33.582031 24.777344 33.566406 24.476562 C 34.460938 24.777344 34.980469 25.117188 34.980469 25.386719 C 34.980469 25.65625 34.460938 26.007812 33.566406 26.3125 Z M 28.511719 31.824219 C 28.242188 31.824219 27.886719 31.300781 27.601562 30.425781 C 27.902344 30.425781 28.207031 30.425781 28.511719 30.425781 C 28.8125 30.425781 29.132812 30.425781 29.4375 30.425781 C 29.203125 31.300781 28.832031 31.824219 28.542969 31.824219 Z M 28.511719 29.886719 C 28.152344 29.910156 27.789062 29.910156 27.433594 29.886719 C 27.253906 29.109375 27.140625 28.320312 27.09375 27.527344 L 30.011719 27.527344 C 29.941406 28.292969 29.816406 29.050781 29.640625 29.800781 C 29.277344 29.855469 28.910156 29.882812 28.542969 29.886719 Z M 22.125 25.386719 C 22.125 25.117188 22.628906 24.777344 23.523438 24.476562 C 23.523438 24.777344 23.523438 25.082031 23.523438 25.386719 C 23.523438 25.6875 23.523438 26.007812 23.523438 26.3125 C 22.628906 26.007812 22.125 25.671875 22.125 25.386719 Z M 24.0625 25.386719 C 24.035156 25.027344 24.035156 24.667969 24.0625 24.308594 C 24.808594 24.121094 25.570312 24 26.335938 23.9375 C 26.335938 24.410156 26.335938 24.898438 26.335938 25.386719 C 26.335938 25.875 26.335938 26.378906 26.335938 26.851562 C 25.597656 26.785156 24.863281 26.660156 24.144531 26.480469 C 24.121094 26.117188 24.121094 25.75 24.144531 25.386719 Z M 28.542969 18.964844 C 28.832031 18.964844 29.167969 19.488281 29.472656 20.363281 C 29.167969 20.363281 28.863281 20.363281 28.542969 20.363281 C 28.222656 20.363281 27.9375 20.363281 27.632812 20.363281 C 27.921875 19.488281 28.273438 18.964844 28.542969 18.964844 Z M 28.542969 20.902344 C 28.910156 20.875 29.273438 20.875 29.640625 20.902344 C 29.816406 21.652344 29.941406 22.414062 30.011719 23.179688 L 27.09375 23.179688 C 27.175781 22.4375 27.320312 21.707031 27.515625 20.988281 C 27.855469 20.9375 28.199219 20.90625 28.542969 20.902344 Z M 30.230469 21.089844 C 30.894531 21.222656 31.539062 21.4375 32.148438 21.730469 C 32.441406 22.339844 32.652344 22.984375 32.773438 23.648438 C 32.046875 23.496094 31.308594 23.382812 30.566406 23.3125 C 30.515625 22.566406 30.425781 21.824219 30.296875 21.089844 Z M 30.042969 25.386719 C 30.042969 25.925781 30.042969 26.429688 30.042969 26.917969 C 29.570312 26.917969 29.066406 26.917969 28.527344 26.917969 C 27.988281 26.917969 27.5 26.917969 27.011719 26.917969 C 27.011719 26.429688 27.011719 25.925781 27.011719 25.386719 C 27.011719 24.847656 27.011719 24.359375 27.011719 23.871094 C 27.5 23.871094 28.003906 23.871094 28.527344 23.871094 C 29.050781 23.871094 29.570312 23.871094 30.042969 23.871094 C 30.089844 24.351562 30.109375 24.859375 30.109375 25.386719 Z M 26.472656 23.3125 C 25.722656 23.382812 24.980469 23.496094 24.246094 23.648438 C 24.382812 22.980469 24.597656 22.332031 24.886719 21.710938 C 25.5 21.433594 26.144531 21.230469 26.808594 21.105469 C 26.644531 21.832031 26.535156 22.570312 26.472656 23.3125 Z M 26.472656 27.476562 C 26.535156 28.222656 26.648438 28.964844 26.808594 29.699219 C 26.148438 29.5625 25.503906 29.355469 24.886719 29.078125 C 24.597656 28.457031 24.382812 27.808594 24.246094 27.136719 C 24.980469 27.308594 25.722656 27.4375 26.472656 27.527344 Z M 30.632812 27.476562 C 31.375 27.40625 32.113281 27.292969 32.839844 27.136719 C 32.71875 27.804688 32.511719 28.449219 32.21875 29.058594 C 31.605469 29.351562 30.960938 29.566406 30.296875 29.699219 C 30.449219 28.980469 30.5625 28.257812 30.632812 27.527344 Z M 30.632812 26.851562 C 30.632812 26.378906 30.632812 25.890625 30.632812 25.386719 C 30.632812 24.878906 30.632812 24.410156 30.632812 23.9375 C 31.402344 24 32.160156 24.125 32.910156 24.308594 C 33.019531 25.027344 33.019531 25.761719 32.910156 26.480469 C 32.179688 26.660156 31.433594 26.785156 30.683594 26.851562 Z M 34.730469 24.359375 C 34.332031 24.117188 33.898438 23.933594 33.449219 23.820312 C 33.355469 23.246094 33.207031 22.679688 33.007812 22.132812 C 33.835938 22.652344 34.457031 23.4375 34.777344 24.359375 Z M 31.695312 20.886719 C 31.152344 20.679688 30.585938 20.535156 30.011719 20.449219 C 29.933594 19.980469 29.789062 19.527344 29.589844 19.101562 C 30.480469 19.449219 31.234375 20.078125 31.746094 20.886719 Z M 27.515625 19.101562 C 27.285156 19.507812 27.109375 19.945312 26.992188 20.398438 C 26.417969 20.484375 25.851562 20.628906 25.308594 20.835938 C 25.832031 20.03125 26.609375 19.421875 27.515625 19.101562 Z M 24.144531 22.148438 C 23.941406 22.695312 23.792969 23.257812 23.707031 23.835938 C 23.253906 23.957031 22.816406 24.136719 22.410156 24.375 C 22.707031 23.492188 23.28125 22.730469 24.042969 22.199219 Z M 22.460938 26.378906 C 22.867188 26.617188 23.304688 26.800781 23.757812 26.917969 C 23.84375 27.496094 23.992188 28.058594 24.195312 28.605469 C 23.339844 28.117188 22.671875 27.347656 22.308594 26.429688 Z M 25.511719 29.851562 C 26.054688 30.058594 26.621094 30.203125 27.195312 30.289062 C 27.3125 30.742188 27.484375 31.179688 27.71875 31.585938 C 26.761719 31.308594 25.929688 30.714844 25.359375 29.902344 Z M 29.742188 31.535156 C 29.976562 31.128906 30.160156 30.695312 30.28125 30.238281 C 30.855469 30.152344 31.421875 30.007812 31.964844 29.800781 C 31.40625 30.667969 30.566406 31.316406 29.589844 31.636719 Z M 33.210938 28.488281 C 33.410156 27.941406 33.554688 27.375 33.648438 26.800781 C 34.101562 26.683594 34.53125 26.503906 34.929688 26.261719 C 34.605469 27.234375 33.941406 28.0625 33.058594 28.585938 Z M 33.210938 28.488281 " fill-opacity="1" fill-rule="nonzero"/></g><g clip-path="url(#fcd21cd45b)"><g transform="matrix(1, 0, 0, 1, 23, 9)"><g clip-path="url(#ad89cad5cd)"><g clip-path="url(#7947207c63)"><g fill="#ffffff" fill-opacity="1"><g transform="translate(0.42332, 22.985356)"><g/></g></g></g><g clip-path="url(#b98a0970f3)"><g fill="#ffffff" fill-opacity="1"><g transform="translate(14.764441, 22.985356)"><g><path d="M 14.65625 -0.140625 C 14.15625 -0.160156 13.648438 -0.164062 13.140625 -0.15625 C 12.640625 -0.144531 12.132812 -0.140625 11.625 -0.140625 C 11.507812 -0.140625 11.414062 -0.335938 11.34375 -0.734375 C 11.28125 -1.140625 11.238281 -1.664062 11.21875 -2.3125 C 11.195312 -2.96875 11.1875 -3.671875 11.1875 -4.421875 C 11.1875 -5.179688 11.195312 -5.914062 11.21875 -6.625 C 11.238281 -7.332031 11.253906 -7.941406 11.265625 -8.453125 C 11.273438 -8.972656 11.28125 -9.3125 11.28125 -9.46875 C 11.257812 -10.539062 11.085938 -11.351562 10.765625 -11.90625 C 10.453125 -12.457031 10.0625 -12.835938 9.59375 -13.046875 C 9.125 -13.265625 8.660156 -13.375 8.203125 -13.375 L 8.140625 -13.375 C 7.054688 -13.375 6.171875 -13.003906 5.484375 -12.265625 C 4.804688 -11.523438 4.453125 -10.5625 4.421875 -9.375 C 4.398438 -8.613281 4.390625 -7.847656 4.390625 -7.078125 C 4.390625 -6.316406 4.390625 -5.554688 4.390625 -4.796875 C 4.410156 -4.203125 4.460938 -3.546875 4.546875 -2.828125 C 4.628906 -2.109375 4.613281 -1.453125 4.5 -0.859375 C 4.425781 -0.421875 4.25 -0.1875 3.96875 -0.15625 C 3.695312 -0.125 3.390625 -0.101562 3.046875 -0.09375 C 2.816406 -0.0703125 2.515625 -0.046875 2.140625 -0.015625 C 1.765625 0.015625 1.398438 0.00390625 1.046875 -0.046875 C 0.691406 -0.109375 0.429688 -0.253906 0.265625 -0.484375 C 0.046875 -0.796875 -0.0351562 -1.164062 0.015625 -1.59375 C 0.078125 -2.019531 0.117188 -2.394531 0.140625 -2.71875 C 0.222656 -3.769531 0.28125 -4.84375 0.3125 -5.9375 C 0.375 -8 0.316406 -10.054688 0.140625 -12.109375 C 0.109375 -12.503906 0.0820312 -12.96875 0.0625 -13.5 C 0.0390625 -14.039062 0.0820312 -14.554688 0.1875 -15.046875 C 0.289062 -15.535156 0.5 -15.914062 0.8125 -16.1875 C 1.132812 -16.46875 1.609375 -16.550781 2.234375 -16.4375 C 2.753906 -16.34375 3.257812 -16.222656 3.75 -16.078125 C 4.25 -15.929688 4.757812 -15.8125 5.28125 -15.71875 C 5.3125 -15.71875 5.351562 -15.71875 5.40625 -15.71875 C 5.457031 -15.71875 5.492188 -15.71875 5.515625 -15.71875 C 5.867188 -15.71875 6.226562 -15.789062 6.59375 -15.9375 C 6.957031 -16.082031 7.332031 -16.226562 7.71875 -16.375 C 8.101562 -16.53125 8.484375 -16.617188 8.859375 -16.640625 C 9.972656 -16.734375 11.023438 -16.539062 12.015625 -16.0625 C 12.878906 -15.664062 13.546875 -15.140625 14.015625 -14.484375 C 14.484375 -13.835938 14.820312 -13.117188 15.03125 -12.328125 C 15.238281 -11.546875 15.367188 -10.734375 15.421875 -9.890625 C 15.484375 -9.054688 15.535156 -8.226562 15.578125 -7.40625 C 15.578125 -7.226562 15.59375 -6.867188 15.625 -6.328125 C 15.664062 -5.796875 15.691406 -5.179688 15.703125 -4.484375 C 15.710938 -3.785156 15.695312 -3.109375 15.65625 -2.453125 C 15.625 -1.796875 15.535156 -1.242188 15.390625 -0.796875 C 15.242188 -0.359375 15.03125 -0.140625 14.75 -0.140625 C 14.726562 -0.140625 14.710938 -0.140625 14.703125 -0.140625 C 14.691406 -0.140625 14.675781 -0.140625 14.65625 -0.140625 Z M 14.65625 -0.140625 "/></g></g></g></g><g clip-path="url(#6292fd747b)"><g fill="#ffffff" fill-opacity="1"><g transform="translate(33.349718, 22.985356)"><g><path d="M 14.65625 -0.140625 C 14.15625 -0.160156 13.648438 -0.164062 13.140625 -0.15625 C 12.640625 -0.144531 12.132812 -0.140625 11.625 -0.140625 C 11.507812 -0.140625 11.414062 -0.335938 11.34375 -0.734375 C 11.28125 -1.140625 11.238281 -1.664062 11.21875 -2.3125 C 11.195312 -2.96875 11.1875 -3.671875 11.1875 -4.421875 C 11.1875 -5.179688 11.195312 -5.914062 11.21875 -6.625 C 11.238281 -7.332031 11.253906 -7.941406 11.265625 -8.453125 C 11.273438 -8.972656 11.28125 -9.3125 11.28125 -9.46875 C 11.257812 -10.539062 11.085938 -11.351562 10.765625 -11.90625 C 10.453125 -12.457031 10.0625 -12.835938 9.59375 -13.046875 C 9.125 -13.265625 8.660156 -13.375 8.203125 -13.375 L 8.140625 -13.375 C 7.054688 -13.375 6.171875 -13.003906 5.484375 -12.265625 C 4.804688 -11.523438 4.453125 -10.5625 4.421875 -9.375 C 4.398438 -8.613281 4.390625 -7.847656 4.390625 -7.078125 C 4.390625 -6.316406 4.390625 -5.554688 4.390625 -4.796875 C 4.410156 -4.203125 4.460938 -3.546875 4.546875 -2.828125 C 4.628906 -2.109375 4.613281 -1.453125 4.5 -0.859375 C 4.425781 -0.421875 4.25 -0.1875 3.96875 -0.15625 C 3.695312 -0.125 3.390625 -0.101562 3.046875 -0.09375 C 2.816406 -0.0703125 2.515625 -0.046875 2.140625 -0.015625 C 1.765625 0.015625 1.398438 0.00390625 1.046875 -0.046875 C 0.691406 -0.109375 0.429688 -0.253906 0.265625 -0.484375 C 0.046875 -0.796875 -0.0351562 -1.164062 0.015625 -1.59375 C 0.078125 -2.019531 0.117188 -2.394531 0.140625 -2.71875 C 0.222656 -3.769531 0.28125 -4.84375 0.3125 -5.9375 C 0.375 -8 0.316406 -10.054688 0.140625 -12.109375 C 0.109375 -12.503906 0.0820312 -12.96875 0.0625 -13.5 C 0.0390625 -14.039062 0.0820312 -14.554688 0.1875 -15.046875 C 0.289062 -15.535156 0.5 -15.914062 0.8125 -16.1875 C 1.132812 -16.46875 1.609375 -16.550781 2.234375 -16.4375 C 2.753906 -16.34375 3.257812 -16.222656 3.75 -16.078125 C 4.25 -15.929688 4.757812 -15.8125 5.28125 -15.71875 C 5.3125 -15.71875 5.351562 -15.71875 5.40625 -15.71875 C 5.457031 -15.71875 5.492188 -15.71875 5.515625 -15.71875 C 5.867188 -15.71875 6.226562 -15.789062 6.59375 -15.9375 C 6.957031 -16.082031 7.332031 -16.226562 7.71875 -16.375 C 8.101562 -16.53125 8.484375 -16.617188 8.859375 -16.640625 C 9.972656 -16.734375 11.023438 -16.539062 12.015625 -16.0625 C 12.878906 -15.664062 13.546875 -15.140625 14.015625 -14.484375 C 14.484375 -13.835938 14.820312 -13.117188 15.03125 -12.328125 C 15.238281 -11.546875 15.367188 -10.734375 15.421875 -9.890625 C 15.484375 -9.054688 15.535156 -8.226562 15.578125 -7.40625 C 15.578125 -7.226562 15.59375 -6.867188 15.625 -6.328125 C 15.664062 -5.796875 15.691406 -5.179688 15.703125 -4.484375 C 15.710938 -3.785156 15.695312 -3.109375 15.65625 -2.453125 C 15.625 -1.796875 15.535156 -1.242188 15.390625 -0.796875 C 15.242188 -0.359375 15.03125 -0.140625 14.75 -0.140625 C 14.726562 -0.140625 14.710938 -0.140625 14.703125 -0.140625 C 14.691406 -0.140625 14.675781 -0.140625 14.65625 -0.140625 Z M 14.65625 -0.140625 "/></g></g></g></g><g clip-path="url(#ecacc0bb19)"><g fill="#ffffff" fill-opacity="1"><g transform="translate(51.934995, 22.985356)"><g><path d="M 16.09375 -7.28125 C 15.863281 -7.09375 15.523438 -6.960938 15.078125 -6.890625 C 14.628906 -6.828125 14.148438 -6.796875 13.640625 -6.796875 C 13.128906 -6.796875 12.65625 -6.804688 12.21875 -6.828125 C 11.78125 -6.847656 11.445312 -6.859375 11.21875 -6.859375 C 10.21875 -6.835938 9.226562 -6.820312 8.25 -6.8125 C 7.28125 -6.800781 6.300781 -6.796875 5.3125 -6.796875 C 5 -6.796875 4.800781 -6.695312 4.71875 -6.5 C 4.632812 -6.3125 4.625 -6.097656 4.6875 -5.859375 C 4.757812 -5.628906 4.851562 -5.425781 4.96875 -5.25 C 5.363281 -4.726562 5.863281 -4.3125 6.46875 -4 C 7.070312 -3.6875 7.695312 -3.488281 8.34375 -3.40625 C 9.070312 -3.332031 9.679688 -3.429688 10.171875 -3.703125 C 10.660156 -3.984375 11.207031 -4.28125 11.8125 -4.59375 C 12.101562 -4.738281 12.300781 -4.832031 12.40625 -4.875 C 12.507812 -4.914062 12.6875 -4.832031 12.9375 -4.625 C 13.207031 -4.40625 13.460938 -4.113281 13.703125 -3.75 C 13.941406 -3.394531 14.175781 -3.082031 14.40625 -2.8125 C 14.65625 -2.488281 14.644531 -2.179688 14.375 -1.890625 C 14.101562 -1.609375 13.691406 -1.347656 13.140625 -1.109375 C 12.585938 -0.867188 11.984375 -0.660156 11.328125 -0.484375 C 10.679688 -0.316406 10.09375 -0.179688 9.5625 -0.078125 C 9.039062 0.015625 8.679688 0.0625 8.484375 0.0625 C 7.203125 0.0625 6.019531 -0.191406 4.9375 -0.703125 C 3.863281 -1.210938 2.941406 -1.898438 2.171875 -2.765625 C 1.410156 -3.640625 0.835938 -4.617188 0.453125 -5.703125 C 0.078125 -6.796875 -0.0664062 -7.941406 0.015625 -9.140625 C 0.0976562 -10.335938 0.46875 -11.5 1.125 -12.625 C 1.613281 -13.5 2.273438 -14.242188 3.109375 -14.859375 C 3.941406 -15.472656 4.859375 -15.925781 5.859375 -16.21875 C 6.867188 -16.519531 7.898438 -16.65625 8.953125 -16.625 C 10.003906 -16.59375 11.003906 -16.378906 11.953125 -15.984375 C 12.898438 -15.597656 13.726562 -15.015625 14.4375 -14.234375 C 14.757812 -13.867188 15.066406 -13.410156 15.359375 -12.859375 C 15.660156 -12.316406 15.914062 -11.726562 16.125 -11.09375 C 16.332031 -10.46875 16.457031 -9.851562 16.5 -9.25 C 16.550781 -8.644531 16.492188 -8.097656 16.328125 -7.609375 C 16.285156 -7.492188 16.207031 -7.382812 16.09375 -7.28125 Z M 11.765625 -10.265625 C 11.816406 -10.398438 11.832031 -10.546875 11.8125 -10.703125 C 11.800781 -10.929688 11.695312 -11.148438 11.5 -11.359375 C 10.988281 -12.085938 10.320312 -12.625 9.5 -12.96875 C 8.675781 -13.3125 7.832031 -13.289062 6.96875 -12.90625 C 6.582031 -12.738281 6.222656 -12.519531 5.890625 -12.25 C 5.554688 -11.976562 5.25 -11.691406 4.96875 -11.390625 C 4.882812 -11.316406 4.804688 -11.226562 4.734375 -11.125 C 4.660156 -11.03125 4.601562 -10.925781 4.5625 -10.8125 C 4.488281 -10.582031 4.523438 -10.367188 4.671875 -10.171875 C 4.828125 -9.984375 5.019531 -9.890625 5.25 -9.890625 L 11.109375 -9.890625 C 11.429688 -9.890625 11.648438 -10.015625 11.765625 -10.265625 Z M 11.765625 -10.265625 "/></g></g></g></g><g clip-path="url(#0123517490)"><g fill="#ffffff" fill-opacity="1"><g transform="translate(71.323344, 22.985356)"><g><path d="M 14.4375 -14.796875 C 14.789062 -14.398438 14.90625 -13.972656 14.78125 -13.515625 C 14.71875 -13.304688 14.613281 -13.109375 14.46875 -12.921875 C 14.320312 -12.742188 14.175781 -12.566406 14.03125 -12.390625 C 13.9375 -12.296875 13.835938 -12.203125 13.734375 -12.109375 C 13.640625 -12.015625 13.546875 -11.914062 13.453125 -11.8125 C 13.296875 -11.644531 13.085938 -11.585938 12.828125 -11.640625 C 12.578125 -11.703125 12.320312 -11.800781 12.0625 -11.9375 C 11.800781 -12.070312 11.578125 -12.164062 11.390625 -12.21875 C 10.960938 -12.375 10.546875 -12.507812 10.140625 -12.625 C 9.734375 -12.738281 9.304688 -12.820312 8.859375 -12.875 C 8.765625 -12.894531 8.675781 -12.90625 8.59375 -12.90625 C 8.507812 -12.90625 8.414062 -12.90625 8.3125 -12.90625 C 7.375 -12.90625 6.535156 -12.625 5.796875 -12.0625 C 5.066406 -11.5 4.566406 -10.75 4.296875 -9.8125 C 4.015625 -8.800781 4.046875 -7.804688 4.390625 -6.828125 C 4.734375 -5.847656 5.328125 -5.0625 6.171875 -4.46875 C 6.816406 -4.03125 7.65625 -3.8125 8.6875 -3.8125 C 10.007812 -3.8125 11.070312 -4.128906 11.875 -4.765625 C 12.257812 -5.066406 12.578125 -5.257812 12.828125 -5.34375 C 13.085938 -5.4375 13.398438 -5.257812 13.765625 -4.8125 C 13.960938 -4.625 14.148438 -4.421875 14.328125 -4.203125 C 14.515625 -3.984375 14.691406 -3.757812 14.859375 -3.53125 C 15.085938 -3.21875 15.125 -2.914062 14.96875 -2.625 C 14.820312 -2.34375 14.566406 -2.078125 14.203125 -1.828125 C 13.835938 -1.585938 13.457031 -1.375 13.0625 -1.1875 C 12.675781 -1.007812 12.375 -0.875 12.15625 -0.78125 C 10.988281 -0.21875 9.765625 0.0625 8.484375 0.0625 C 7.222656 0.0625 6.019531 -0.207031 4.875 -0.75 C 3.726562 -1.300781 2.707031 -2.070312 1.8125 -3.0625 C 1.039062 -3.96875 0.53125 -4.894531 0.28125 -5.84375 C 0.03125 -6.800781 -0.0507812 -7.738281 0.03125 -8.65625 C 0.125 -9.582031 0.285156 -10.414062 0.515625 -11.15625 C 1.015625 -12.6875 1.820312 -13.910156 2.9375 -14.828125 C 4.0625 -15.742188 5.453125 -16.3125 7.109375 -16.53125 C 7.671875 -16.582031 8.1875 -16.609375 8.65625 -16.609375 C 8.925781 -16.609375 9.316406 -16.570312 9.828125 -16.5 C 10.347656 -16.4375 10.90625 -16.332031 11.5 -16.1875 C 12.09375 -16.050781 12.65625 -15.867188 13.1875 -15.640625 C 13.726562 -15.410156 14.144531 -15.128906 14.4375 -14.796875 Z M 14.4375 -14.796875 "/></g></g></g></g><g clip-path="url(#07bd2f530b)"><g fill="#ffffff" fill-opacity="1"><g transform="translate(89.248968, 22.985356)"><g><path d="M 4.640625 -0.75 C 3.585938 -1.351562 2.894531 -2.160156 2.5625 -3.171875 C 2.226562 -4.191406 2.070312 -5.273438 2.09375 -6.421875 C 2.113281 -7.097656 2.117188 -7.769531 2.109375 -8.4375 C 2.097656 -9.101562 2.09375 -9.757812 2.09375 -10.40625 C 2.09375 -10.875 2.097656 -11.335938 2.109375 -11.796875 C 2.117188 -12.265625 1.941406 -12.679688 1.578125 -13.046875 C 1.390625 -13.265625 1.148438 -13.40625 0.859375 -13.46875 C 0.578125 -13.53125 0.367188 -13.707031 0.234375 -14 C 0.171875 -14.132812 0.128906 -14.269531 0.109375 -14.40625 C 0.0976562 -14.539062 0.0820312 -14.671875 0.0625 -14.796875 C 0.0390625 -15.109375 0.0390625 -15.410156 0.0625 -15.703125 C 0.0820312 -16.003906 0.207031 -16.269531 0.4375 -16.5 C 0.625 -16.664062 0.84375 -16.769531 1.09375 -16.8125 C 1.351562 -16.863281 1.570312 -17 1.75 -17.21875 C 2.070312 -17.59375 2.234375 -18.007812 2.234375 -18.46875 C 2.234375 -18.925781 2.21875 -19.367188 2.1875 -19.796875 C 2.144531 -20.117188 2.117188 -20.378906 2.109375 -20.578125 C 2.097656 -20.785156 2.242188 -20.972656 2.546875 -21.140625 C 2.773438 -21.273438 3.066406 -21.34375 3.421875 -21.34375 C 3.773438 -21.34375 4.128906 -21.320312 4.484375 -21.28125 C 4.835938 -21.25 5.140625 -21.210938 5.390625 -21.171875 C 5.890625 -21.109375 6.15625 -20.921875 6.1875 -20.609375 C 6.226562 -20.296875 6.234375 -19.9375 6.203125 -19.53125 C 6.117188 -18.425781 6.316406 -17.601562 6.796875 -17.0625 C 7.023438 -16.820312 7.28125 -16.675781 7.5625 -16.625 C 7.851562 -16.570312 8.144531 -16.554688 8.4375 -16.578125 C 8.738281 -16.597656 9.023438 -16.597656 9.296875 -16.578125 C 9.566406 -16.554688 9.796875 -16.453125 9.984375 -16.265625 C 10.191406 -16.054688 10.28125 -15.734375 10.25 -15.296875 C 10.226562 -14.867188 10.195312 -14.519531 10.15625 -14.25 C 10.113281 -13.894531 9.953125 -13.640625 9.671875 -13.484375 C 9.398438 -13.328125 9.078125 -13.210938 8.703125 -13.140625 C 8.328125 -13.066406 7.960938 -12.972656 7.609375 -12.859375 C 7.253906 -12.753906 6.984375 -12.578125 6.796875 -12.328125 C 6.585938 -12.066406 6.410156 -11.613281 6.265625 -10.96875 C 6.117188 -10.332031 6.035156 -9.613281 6.015625 -8.8125 C 6.003906 -8.019531 6.0625 -7.257812 6.1875 -6.53125 C 6.3125 -5.8125 6.535156 -5.210938 6.859375 -4.734375 C 7.179688 -4.253906 7.609375 -4.015625 8.140625 -4.015625 C 8.367188 -4.015625 8.613281 -4.0625 8.875 -4.15625 C 9.132812 -4.25 9.390625 -4.328125 9.640625 -4.390625 C 9.890625 -4.460938 10.109375 -4.453125 10.296875 -4.359375 C 10.566406 -4.265625 10.796875 -4.007812 10.984375 -3.59375 C 11.179688 -3.1875 11.335938 -2.867188 11.453125 -2.640625 C 11.566406 -2.429688 11.640625 -2.222656 11.671875 -2.015625 C 11.691406 -1.722656 11.578125 -1.492188 11.328125 -1.328125 C 11.078125 -1.171875 10.847656 -1.035156 10.640625 -0.921875 C 9.703125 -0.378906 8.707031 -0.0703125 7.65625 0 C 6.601562 0.0625 5.597656 -0.1875 4.640625 -0.75 Z M 4.640625 -0.75 "/></g></g></g></g></g></g></g><g fill="#ffffff" fill-opacity="1"><g transform="translate(4.328691, 31.120273)"><g><path d="M 14.40625 -14.78125 C 14.769531 -14.375 14.882812 -13.941406 14.75 -13.484375 C 14.6875 -13.273438 14.582031 -13.078125 14.4375 -12.890625 C 14.300781 -12.710938 14.15625 -12.539062 14 -12.375 C 13.90625 -12.28125 13.8125 -12.179688 13.71875 -12.078125 C 13.625 -11.984375 13.53125 -11.890625 13.4375 -11.796875 C 13.28125 -11.628906 13.070312 -11.570312 12.8125 -11.625 C 12.5625 -11.6875 12.304688 -11.78125 12.046875 -11.90625 C 11.785156 -12.039062 11.5625 -12.140625 11.375 -12.203125 C 10.945312 -12.359375 10.53125 -12.492188 10.125 -12.609375 C 9.71875 -12.722656 9.289062 -12.804688 8.84375 -12.859375 C 8.75 -12.878906 8.660156 -12.890625 8.578125 -12.890625 C 8.492188 -12.890625 8.40625 -12.890625 8.3125 -12.890625 C 7.375 -12.890625 6.535156 -12.609375 5.796875 -12.046875 C 5.066406 -11.484375 4.566406 -10.734375 4.296875 -9.796875 C 4.003906 -8.785156 4.03125 -7.789062 4.375 -6.8125 C 4.71875 -5.84375 5.3125 -5.0625 6.15625 -4.46875 C 6.800781 -4.03125 7.640625 -3.8125 8.671875 -3.8125 C 9.992188 -3.8125 11.054688 -4.125 11.859375 -4.75 C 12.242188 -5.0625 12.5625 -5.257812 12.8125 -5.34375 C 13.070312 -5.425781 13.382812 -5.25 13.75 -4.8125 C 13.9375 -4.625 14.117188 -4.414062 14.296875 -4.1875 C 14.484375 -3.96875 14.660156 -3.742188 14.828125 -3.515625 C 15.054688 -3.210938 15.09375 -2.914062 14.9375 -2.625 C 14.789062 -2.34375 14.535156 -2.078125 14.171875 -1.828125 C 13.816406 -1.578125 13.441406 -1.363281 13.046875 -1.1875 C 12.648438 -1.007812 12.347656 -0.867188 12.140625 -0.765625 C 10.972656 -0.210938 9.753906 0.0625 8.484375 0.0625 C 7.222656 0.0625 6.019531 -0.207031 4.875 -0.75 C 3.726562 -1.300781 2.703125 -2.070312 1.796875 -3.0625 C 1.035156 -3.957031 0.53125 -4.882812 0.28125 -5.84375 C 0.0390625 -6.800781 -0.0351562 -7.738281 0.046875 -8.65625 C 0.128906 -9.570312 0.285156 -10.398438 0.515625 -11.140625 C 1.015625 -12.671875 1.820312 -13.894531 2.9375 -14.8125 C 4.050781 -15.726562 5.441406 -16.289062 7.109375 -16.5 C 7.660156 -16.550781 8.175781 -16.578125 8.65625 -16.578125 C 8.914062 -16.578125 9.300781 -16.539062 9.8125 -16.46875 C 10.332031 -16.40625 10.890625 -16.300781 11.484375 -16.15625 C 12.078125 -16.019531 12.640625 -15.835938 13.171875 -15.609375 C 13.710938 -15.378906 14.125 -15.101562 14.40625 -14.78125 Z M 14.40625 -14.78125 "/></g></g></g></svg>